<svg xmlns="http://www.w3.org/2000/svg" xmlns:xlink="http://www.w3.org/1999/xlink" width="500" zoomAndPan="magnify" viewBox="0 0 375 374.999991" height="500" preserveAspectRatio="xMidYMid meet" version="1.0"><defs><g/><clipPath id="10e69d8531"><path d="M 89 117.3125 L 173 117.3125 L 173 245 L 89 245 Z M 89 117.3125 " clip-rule="nonzero"/></clipPath><clipPath id="d0470d92d9"><path d="M 196 117.3125 L 279 117.3125 L 279 245 L 196 245 Z M 196 117.3125 " clip-rule="nonzero"/></clipPath><clipPath id="9797376e96"><path d="M 58.566406 156.71875 L 153.875 156.71875 L 153.875 284.5625 L 58.566406 284.5625 Z M 58.566406 156.71875 " clip-rule="nonzero"/></clipPath><clipPath id="ab9318c17b"><path d="M 214.375 156.71875 L 309.734375 156.71875 L 309.734375 284.5625 L 214.375 284.5625 Z M 214.375 156.71875 " clip-rule="nonzero"/></clipPath><clipPath id="7044a3965d"><path d="M 110.503906 80.8125 L 236 80.8125 L 236 123.5625 L 110.503906 123.5625 Z M 110.503906 80.8125 " clip-rule="nonzero"/></clipPath></defs><path stroke-linecap="butt" transform="matrix(0.750399, 0, 0, 0.75, 129.77714, 185.43576)" fill="none" stroke-linejoin="miter" d="M 0.000271552 0.50232 L 146.932563 0.50232 " stroke="#000000" stroke-width="1" stroke-opacity="1" stroke-miterlimit="4"/><g clip-path="url(#10e69d8531)"><path fill="#001d61" d="M 136.890625 238.207031 C 145.964844 238.207031 158.925781 239.363281 172.210938 244.429688 C 164.507812 240.207031 149.808594 233.941406 130.378906 233.941406 C 127.875 233.941406 125.324219 234.046875 122.800781 234.253906 L 122.335938 234.292969 L 96.066406 124.421875 L 96.625 124.3125 C 102.859375 123.101562 109.160156 122.488281 115.355469 122.488281 C 142.328125 122.488281 162.507812 134.117188 172.046875 140.960938 C 150.566406 120.539062 120.589844 117.3125 103.816406 117.3125 C 96.46875 117.3125 91.148438 117.921875 89.445312 118.144531 L 117.316406 240.019531 C 119.324219 239.601562 126.789062 238.207031 136.890625 238.207031 " fill-opacity="1" fill-rule="nonzero"/></g><g clip-path="url(#d0470d92d9)"><path fill="#001d61" d="M 231.410156 238.207031 C 222.339844 238.207031 209.375 239.363281 196.089844 244.429688 C 203.792969 240.207031 218.492188 233.941406 237.921875 233.941406 C 240.425781 233.941406 242.976562 234.046875 245.5 234.253906 L 245.964844 234.292969 L 272.234375 124.421875 L 271.675781 124.3125 C 265.445312 123.101562 259.140625 122.488281 252.949219 122.488281 C 225.972656 122.488281 205.792969 134.117188 196.253906 140.960938 C 217.734375 120.539062 247.710938 117.3125 264.484375 117.3125 C 271.832031 117.3125 277.152344 117.921875 278.855469 118.144531 L 250.984375 240.019531 C 248.976562 239.601562 241.511719 238.207031 231.410156 238.207031 " fill-opacity="1" fill-rule="nonzero"/></g><path fill="#eb7709" d="M 106.808594 253.410156 C 119.34375 248.535156 132.335938 246.0625 145.4375 246.0625 C 153.886719 246.0625 160.960938 247.117188 166.035156 248.21875 C 157.488281 245.300781 147.730469 243.824219 136.914062 243.824219 C 122.902344 243.824219 112.175781 246.398438 112.070312 246.425781 L 111.542969 246.550781 L 111.410156 246.027344 L 84.390625 138.355469 L 84.933594 138.230469 C 86.9375 137.769531 89.628906 137.398438 92 137.070312 L 92.632812 136.980469 L 91.28125 131.070312 C 84.703125 131.390625 79.28125 132.089844 77.539062 132.332031 L 106.808594 253.410156 " fill-opacity="1" fill-rule="nonzero"/><path fill="#eb7709" d="M 261.492188 253.410156 C 248.960938 248.535156 235.964844 246.0625 222.863281 246.0625 C 214.414062 246.0625 207.34375 247.117188 202.269531 248.21875 C 210.816406 245.300781 220.570312 243.824219 231.386719 243.824219 C 245.398438 243.824219 256.125 246.398438 256.230469 246.425781 L 256.757812 246.550781 L 256.890625 246.027344 L 283.910156 138.355469 L 283.367188 138.230469 C 281.363281 137.769531 278.675781 137.398438 276.300781 137.070312 L 275.667969 136.980469 L 277.019531 131.070312 C 283.597656 131.390625 289.019531 132.089844 290.761719 132.332031 L 261.492188 253.410156 " fill-opacity="1" fill-rule="nonzero"/><path fill="#009986" d="M 72.007812 163.953125 L 97.964844 268.097656 C 125.285156 254.875 147.125 252.085938 160.671875 252.085938 C 162.117188 252.085938 163.460938 252.117188 164.699219 252.171875 C 159.96875 251.410156 155.070312 251.023438 150.042969 251.023438 C 124.484375 251.023438 103.503906 260.980469 103.292969 261.082031 L 102.695312 261.371094 L 74.746094 153.25 L 75.289062 153.121094 C 77.085938 152.695312 78.960938 152.3125 81.152344 151.929688 L 79.976562 147.074219 L 79.707031 145.953125 C 73.644531 146.316406 69.328125 147 67.84375 147.257812 L 70.144531 156.492188 L 72.007812 163.953125 " fill-opacity="1" fill-rule="nonzero"/><path fill="#009986" d="M 296.296875 163.953125 L 270.335938 268.097656 C 243.015625 254.875 221.179688 252.085938 207.632812 252.085938 C 206.183594 252.085938 204.839844 252.117188 203.601562 252.171875 C 208.332031 251.410156 213.230469 251.023438 218.257812 251.023438 C 243.816406 251.023438 264.796875 260.980469 265.007812 261.082031 L 265.605469 261.371094 L 293.554688 153.25 L 293.011719 153.121094 C 291.21875 152.695312 289.34375 152.3125 287.148438 151.929688 L 288.324219 147.074219 L 288.59375 145.953125 C 294.65625 146.316406 298.972656 147 300.457031 147.257812 L 298.152344 156.492188 L 296.296875 163.953125 " fill-opacity="1" fill-rule="nonzero"/><g clip-path="url(#9797376e96)"><path fill="#001d61" d="M 58.566406 158.183594 L 90.242188 284.578125 C 91.992188 283.183594 93.859375 281.789062 95.804688 280.425781 C 116.699219 265.78125 141.054688 258.980469 153.648438 256.242188 C 125.578125 258.929688 101.90625 271.265625 94.828125 275.292969 L 94.207031 275.644531 L 65.46875 164.175781 L 66.011719 164.046875 C 67.398438 163.71875 68.851562 163.417969 70.664062 163.082031 L 69.199219 157.207031 L 69.136719 156.960938 C 63.761719 157.339844 59.945312 157.945312 58.566406 158.183594 " fill-opacity="1" fill-rule="nonzero"/></g><g clip-path="url(#ab9318c17b)"><path fill="#001d61" d="M 309.734375 158.183594 L 278.0625 284.578125 C 276.308594 283.183594 274.441406 281.789062 272.496094 280.425781 C 251.605469 265.78125 227.25 258.980469 214.65625 256.242188 C 242.722656 258.929688 266.394531 271.265625 273.472656 275.292969 L 274.09375 275.644531 L 302.832031 164.175781 L 302.289062 164.046875 C 300.902344 163.71875 299.449219 163.417969 297.636719 163.082031 L 299.101562 157.207031 L 299.164062 156.960938 C 304.539062 157.339844 308.355469 157.945312 309.734375 158.183594 " fill-opacity="1" fill-rule="nonzero"/></g><g clip-path="url(#7044a3965d)"><path fill="#042362" d="M 112.765625 123.148438 L 173.335938 83.878906 C 173.335938 83.878906 233.902344 123.148438 233.902344 123.148438 C 234.53125 123.554688 235.371094 123.375 235.773438 122.746094 C 236.179688 122.117188 236 121.277344 235.371094 120.871094 C 235.371094 120.871094 174.070312 81.128906 174.070312 81.128906 C 173.621094 80.835938 173.046875 80.835938 172.601562 81.128906 C 172.601562 81.128906 111.296875 120.871094 111.296875 120.871094 C 110.667969 121.277344 110.488281 122.117188 110.894531 122.746094 C 111.300781 123.375 112.136719 123.554688 112.765625 123.148438 Z M 112.765625 123.148438 " fill-opacity="1" fill-rule="evenodd"/></g><path fill="#042362" d="M 188.308594 91.910156 L 199.449219 84.6875 C 199.449219 84.6875 256.714844 122.332031 256.714844 122.332031 C 257.339844 122.742188 258.179688 122.570312 258.589844 121.941406 C 258.996094 121.316406 258.824219 120.476562 258.199219 120.066406 C 258.199219 120.066406 200.199219 81.933594 200.199219 81.933594 C 199.75 81.640625 199.171875 81.636719 198.722656 81.929688 C 198.722656 81.929688 193.789062 85.128906 186.839844 89.632812 C 186.210938 90.039062 186.03125 90.878906 186.4375 91.507812 C 186.84375 92.136719 187.683594 92.316406 188.308594 91.910156 Z M 188.308594 91.910156 " fill-opacity="1" fill-rule="evenodd"/><path fill="#042362" d="M 145.664062 100.601562 L 145.664062 90.359375 C 145.664062 89.617188 145.058594 89.011719 144.316406 89.011719 L 133.046875 89.011719 C 132.296875 89.011719 131.695312 89.617188 131.695312 90.359375 L 131.695312 108.386719 C 131.695312 109.128906 132.296875 109.734375 133.046875 109.734375 C 133.789062 109.734375 134.394531 109.128906 134.394531 108.386719 L 134.394531 91.710938 C 134.394531 91.710938 142.96875 91.710938 142.96875 91.710938 L 142.96875 100.601562 C 142.96875 101.34375 143.574219 101.949219 144.316406 101.949219 C 145.058594 101.949219 145.664062 101.34375 145.664062 100.601562 Z M 145.664062 100.601562 " fill-opacity="1" fill-rule="evenodd"/><g fill="#000000" fill-opacity="1"><g transform="translate(148.602879, 176.590375)"><g><path d="M 9.742188 -5.839844 C 14.136719 -5.839844 17.734375 -9.4375 17.734375 -13.832031 C 17.734375 -18.226562 14.136719 -21.824219 9.742188 -21.824219 C 5.347656 -21.824219 1.75 -18.226562 1.75 -13.832031 C 1.75 -9.4375 5.347656 -5.839844 9.742188 -5.839844 Z M 9.742188 -18.257812 C 12.203125 -18.257812 14.167969 -16.289062 14.167969 -13.832031 C 14.167969 -11.371094 12.203125 -9.40625 9.742188 -9.40625 C 7.285156 -9.40625 5.316406 -11.371094 5.316406 -13.832031 C 5.316406 -16.289062 7.285156 -18.257812 9.742188 -18.257812 Z M 16.75 0 L 16.75 -3.566406 L 2.550781 -3.566406 L 2.550781 0 Z M 16.75 0 "/></g></g></g><g fill="#000000" fill-opacity="1"><g transform="translate(168.210562, 176.590375)"><g><path d="M 9.621094 -21.515625 L 2.429688 -21.515625 L 2.429688 0.0625 L 6.023438 0.0625 L 6.023438 -8.914062 L 9.621094 -8.914062 C 9.621094 -8.914062 16.8125 -8.914062 16.8125 -15.214844 C 16.8125 -21.515625 9.621094 -21.515625 9.621094 -21.515625 Z M 9.621094 -12.507812 L 6.023438 -12.507812 L 6.023438 -17.917969 L 9.621094 -17.917969 C 9.621094 -17.917969 13.214844 -17.917969 13.214844 -15.214844 C 13.214844 -12.507812 9.621094 -12.507812 9.621094 -12.507812 Z M 9.621094 -12.507812 "/></g></g></g><g fill="#000000" fill-opacity="1"><g transform="translate(186.035735, 176.590375)"><g><path d="M 6.023438 -17.917969 L 16.78125 -17.917969 L 16.78125 -21.515625 L 2.429688 -21.515625 L 2.429688 0 L 16.78125 0 L 16.78125 -3.597656 L 6.023438 -3.597656 L 6.023438 -8.976562 L 14.96875 -8.976562 L 14.96875 -12.539062 L 6.023438 -12.539062 Z M 6.023438 -17.917969 "/></g></g></g><g fill="#000000" fill-opacity="1"><g transform="translate(204.106771, 176.590375)"><g><path d="M 13.15625 -10.726562 C 15 -11.1875 16.75 -12.632812 16.75 -15.460938 C 16.75 -21.667969 9.589844 -21.484375 9.589844 -21.484375 L 2.429688 -21.484375 L 2.429688 0 L 9.589844 0 C 11.035156 0 17.058594 -0.277344 17.058594 -6.179688 C 17.058594 -6.179688 17.210938 -9.898438 13.15625 -10.726562 Z M 5.992188 -12.539062 L 5.992188 -17.917969 L 9.589844 -17.917969 C 9.589844 -17.917969 13.15625 -18.101562 13.15625 -15.214844 C 13.15625 -12.539062 9.589844 -12.539062 9.589844 -12.539062 Z M 9.589844 -3.566406 L 5.992188 -3.566406 L 5.992188 -8.945312 L 9.589844 -8.945312 C 9.589844 -8.945312 13.460938 -9.160156 13.460938 -6.269531 C 13.460938 -3.933594 11.09375 -3.566406 9.589844 -3.566406 Z M 9.589844 -3.566406 "/></g></g></g><g fill="#000000" fill-opacity="1"><g transform="translate(134.727872, 208.229647)"><g><path d="M 2.390625 -7.734375 C 2.242188 -8.085938 2.171875 -8.484375 2.171875 -8.921875 C 2.171875 -9.753906 2.425781 -10.4375 2.9375 -10.96875 C 3.457031 -11.507812 4.097656 -11.78125 4.859375 -11.78125 C 5.640625 -11.78125 6.285156 -11.535156 6.796875 -11.046875 C 7.304688 -10.554688 7.5625 -9.890625 7.5625 -9.046875 C 7.5625 -8.203125 7.296875 -7.515625 6.765625 -6.984375 C 6.242188 -6.453125 5.609375 -6.1875 4.859375 -6.1875 C 3.628906 -6.1875 2.804688 -6.703125 2.390625 -7.734375 Z M 2.390625 -7.734375 "/></g></g></g><g fill="#000000" fill-opacity="1"><g transform="translate(144.514029, 208.229647)"><g/></g></g><g fill="#000000" fill-opacity="1"><g transform="translate(150.833813, 208.229647)"><g><path d="M 9.84375 -14.421875 L 9.59375 -13.21875 C 8.507812 -13.457031 7.585938 -13.578125 6.828125 -13.578125 C 4.097656 -13.578125 2.734375 -12.742188 2.734375 -11.078125 C 2.734375 -10.441406 2.929688 -9.953125 3.328125 -9.609375 C 3.734375 -9.273438 4.238281 -9 4.84375 -8.78125 C 5.457031 -8.5625 6.117188 -8.363281 6.828125 -8.1875 C 7.535156 -8.007812 8.191406 -7.773438 8.796875 -7.484375 C 10.210938 -6.773438 10.921875 -5.695312 10.921875 -4.25 C 10.921875 -2.800781 10.378906 -1.703125 9.296875 -0.953125 C 8.367188 -0.304688 7.144531 0.015625 5.625 0.015625 C 3.738281 0.015625 2.144531 -0.410156 0.84375 -1.265625 L 1.390625 -2.34375 C 1.773438 -2.070312 2.316406 -1.820312 3.015625 -1.59375 C 3.722656 -1.363281 4.410156 -1.25 5.078125 -1.25 C 6.367188 -1.25 7.390625 -1.457031 8.140625 -1.875 C 9.035156 -2.394531 9.484375 -3.144531 9.484375 -4.125 C 9.484375 -4.84375 9.28125 -5.398438 8.875 -5.796875 C 8.476562 -6.203125 7.972656 -6.523438 7.359375 -6.765625 C 6.753906 -7.015625 6.097656 -7.226562 5.390625 -7.40625 C 4.679688 -7.582031 4.023438 -7.804688 3.421875 -8.078125 C 2.003906 -8.691406 1.296875 -9.613281 1.296875 -10.84375 C 1.296875 -12.070312 1.71875 -13.046875 2.5625 -13.765625 C 3.40625 -14.484375 4.601562 -14.84375 6.15625 -14.84375 C 7.351562 -14.84375 8.582031 -14.703125 9.84375 -14.421875 Z M 9.84375 -14.421875 "/></g></g></g><g fill="#000000" fill-opacity="1"><g transform="translate(162.606791, 208.229647)"><g><path d="M 8.265625 -9.15625 C 7.691406 -9.332031 7.097656 -9.421875 6.484375 -9.421875 C 5.265625 -9.421875 4.285156 -9.023438 3.546875 -8.234375 C 2.804688 -7.453125 2.4375 -6.34375 2.4375 -4.90625 C 2.4375 -2.394531 3.597656 -1.140625 5.921875 -1.140625 C 6.847656 -1.140625 7.804688 -1.296875 8.796875 -1.609375 C 8.992188 -1.660156 9.113281 -1.703125 9.15625 -1.734375 L 9.484375 -0.59375 C 8.992188 -0.289062 8.101562 -0.078125 6.8125 0.046875 C 6.4375 0.0664062 6.046875 0.078125 5.640625 0.078125 C 4.441406 0.078125 3.457031 -0.210938 2.6875 -0.796875 C 1.601562 -1.617188 1.0625 -2.96875 1.0625 -4.84375 C 1.0625 -6.71875 1.5625 -8.15625 2.5625 -9.15625 C 3.570312 -10.164062 4.875 -10.671875 6.46875 -10.671875 C 6.976562 -10.671875 7.515625 -10.601562 8.078125 -10.46875 C 8.648438 -10.34375 9.09375 -10.132812 9.40625 -9.84375 L 9.40625 -7.078125 L 8.375 -6.9375 Z M 8.265625 -9.15625 "/></g></g></g><g fill="#000000" fill-opacity="1"><g transform="translate(172.942491, 208.229647)"><g><path d="M 3.09375 -10.671875 L 3.09375 0 L 1.71875 0 L 1.71875 -10.5625 Z M 2.34375 -13.40625 C 2.0625 -13.40625 1.847656 -13.492188 1.703125 -13.671875 C 1.554688 -13.859375 1.484375 -14.09375 1.484375 -14.375 C 1.484375 -14.65625 1.5625 -14.882812 1.71875 -15.0625 C 1.882812 -15.238281 2.109375 -15.328125 2.390625 -15.328125 C 2.671875 -15.328125 2.898438 -15.238281 3.078125 -15.0625 C 3.253906 -14.882812 3.34375 -14.640625 3.34375 -14.328125 C 3.34375 -14.023438 3.242188 -13.796875 3.046875 -13.640625 C 2.859375 -13.484375 2.625 -13.40625 2.34375 -13.40625 Z M 2.34375 -13.40625 "/></g></g></g><g fill="#000000" fill-opacity="1"><g transform="translate(177.550226, 208.229647)"><g><path d="M 2.53125 -4.859375 C 2.53125 -2.378906 3.71875 -1.140625 6.09375 -1.140625 C 7.09375 -1.140625 8.007812 -1.273438 8.84375 -1.546875 C 9.050781 -1.617188 9.195312 -1.675781 9.28125 -1.71875 L 9.59375 -0.59375 C 9.101562 -0.289062 8.207031 -0.078125 6.90625 0.046875 C 6.539062 0.0664062 6.15625 0.078125 5.75 0.078125 C 4.5625 0.078125 3.578125 -0.210938 2.796875 -0.796875 C 1.703125 -1.609375 1.15625 -2.945312 1.15625 -4.8125 C 1.15625 -6.6875 1.644531 -8.128906 2.625 -9.140625 C 3.601562 -10.148438 4.789062 -10.65625 6.1875 -10.65625 C 7.582031 -10.65625 8.632812 -10.203125 9.34375 -9.296875 C 9.875 -8.578125 10.140625 -7.628906 10.140625 -6.453125 C 10.140625 -6.171875 10.128906 -5.875 10.109375 -5.5625 L 2.5625 -5.5625 C 2.539062 -5.445312 2.53125 -5.328125 2.53125 -5.203125 Z M 6.28125 -9.34375 C 5.40625 -9.34375 4.65625 -9.078125 4.03125 -8.546875 C 3.414062 -8.023438 2.988281 -7.347656 2.75 -6.515625 L 8.90625 -6.515625 C 8.832031 -8.078125 8.222656 -8.984375 7.078125 -9.234375 C 6.828125 -9.304688 6.5625 -9.34375 6.28125 -9.34375 Z M 6.28125 -9.34375 "/></g></g></g><g fill="#000000" fill-opacity="1"><g transform="translate(188.456614, 208.229647)"><g><path d="M 2.640625 -9.40625 C 3.703125 -10.175781 4.703125 -10.585938 5.640625 -10.640625 C 6.503906 -10.640625 7.164062 -10.53125 7.625 -10.3125 C 8.09375 -10.101562 8.476562 -9.804688 8.78125 -9.421875 C 9.082031 -9.035156 9.234375 -8.488281 9.234375 -7.78125 L 9.234375 0 L 7.859375 0 L 7.859375 -7.421875 C 7.859375 -7.941406 7.75 -8.34375 7.53125 -8.625 C 7.070312 -9.144531 6.378906 -9.40625 5.453125 -9.40625 C 4.566406 -9.363281 3.628906 -9.078125 2.640625 -8.546875 L 2.640625 0 L 1.265625 0 L 1.265625 -10.5625 L 2.640625 -10.671875 Z M 2.640625 -9.40625 "/></g></g></g><g fill="#000000" fill-opacity="1"><g transform="translate(199.172778, 208.229647)"><g><path d="M 8.265625 -9.15625 C 7.691406 -9.332031 7.097656 -9.421875 6.484375 -9.421875 C 5.265625 -9.421875 4.285156 -9.023438 3.546875 -8.234375 C 2.804688 -7.453125 2.4375 -6.34375 2.4375 -4.90625 C 2.4375 -2.394531 3.597656 -1.140625 5.921875 -1.140625 C 6.847656 -1.140625 7.804688 -1.296875 8.796875 -1.609375 C 8.992188 -1.660156 9.113281 -1.703125 9.15625 -1.734375 L 9.484375 -0.59375 C 8.992188 -0.289062 8.101562 -0.078125 6.8125 0.046875 C 6.4375 0.0664062 6.046875 0.078125 5.640625 0.078125 C 4.441406 0.078125 3.457031 -0.210938 2.6875 -0.796875 C 1.601562 -1.617188 1.0625 -2.96875 1.0625 -4.84375 C 1.0625 -6.71875 1.5625 -8.15625 2.5625 -9.15625 C 3.570312 -10.164062 4.875 -10.671875 6.46875 -10.671875 C 6.976562 -10.671875 7.515625 -10.601562 8.078125 -10.46875 C 8.648438 -10.34375 9.09375 -10.132812 9.40625 -9.84375 L 9.40625 -7.078125 L 8.375 -6.9375 Z M 8.265625 -9.15625 "/></g></g></g><g fill="#000000" fill-opacity="1"><g transform="translate(209.508479, 208.229647)"><g><path d="M 2.53125 -4.859375 C 2.53125 -2.378906 3.71875 -1.140625 6.09375 -1.140625 C 7.09375 -1.140625 8.007812 -1.273438 8.84375 -1.546875 C 9.050781 -1.617188 9.195312 -1.675781 9.28125 -1.71875 L 9.59375 -0.59375 C 9.101562 -0.289062 8.207031 -0.078125 6.90625 0.046875 C 6.539062 0.0664062 6.15625 0.078125 5.75 0.078125 C 4.5625 0.078125 3.578125 -0.210938 2.796875 -0.796875 C 1.703125 -1.609375 1.15625 -2.945312 1.15625 -4.8125 C 1.15625 -6.6875 1.644531 -8.128906 2.625 -9.140625 C 3.601562 -10.148438 4.789062 -10.65625 6.1875 -10.65625 C 7.582031 -10.65625 8.632812 -10.203125 9.34375 -9.296875 C 9.875 -8.578125 10.140625 -7.628906 10.140625 -6.453125 C 10.140625 -6.171875 10.128906 -5.875 10.109375 -5.5625 L 2.5625 -5.5625 C 2.539062 -5.445312 2.53125 -5.328125 2.53125 -5.203125 Z M 6.28125 -9.34375 C 5.40625 -9.34375 4.65625 -9.078125 4.03125 -8.546875 C 3.414062 -8.023438 2.988281 -7.347656 2.75 -6.515625 L 8.90625 -6.515625 C 8.832031 -8.078125 8.222656 -8.984375 7.078125 -9.234375 C 6.828125 -9.304688 6.5625 -9.34375 6.28125 -9.34375 Z M 6.28125 -9.34375 "/></g></g></g><g fill="#000000" fill-opacity="1"><g transform="translate(220.414867, 208.229647)"><g/></g></g><g fill="#000000" fill-opacity="1"><g transform="translate(226.734651, 208.229647)"><g><path d="M 2.390625 -7.734375 C 2.242188 -8.085938 2.171875 -8.484375 2.171875 -8.921875 C 2.171875 -9.753906 2.425781 -10.4375 2.9375 -10.96875 C 3.457031 -11.507812 4.097656 -11.78125 4.859375 -11.78125 C 5.640625 -11.78125 6.285156 -11.535156 6.796875 -11.046875 C 7.304688 -10.554688 7.5625 -9.890625 7.5625 -9.046875 C 7.5625 -8.203125 7.296875 -7.515625 6.765625 -6.984375 C 6.242188 -6.453125 5.609375 -6.1875 4.859375 -6.1875 C 3.628906 -6.1875 2.804688 -6.703125 2.390625 -7.734375 Z M 2.390625 -7.734375 "/></g></g></g></svg>