<svg xmlns="http://www.w3.org/2000/svg" xmlns:xlink="http://www.w3.org/1999/xlink" width="500" zoomAndPan="magnify" viewBox="0 0 375 374.999991" height="500" preserveAspectRatio="xMidYMid meet" version="1.0"><defs><clipPath id="2d3d8cb07a"><path d="M 140 195 L 236 195 L 236 288.09375 L 140 288.09375 Z M 140 195 " clip-rule="nonzero"/></clipPath><clipPath id="0b98b7427c"><path d="M 149 239 L 207 239 L 207 288.09375 L 149 288.09375 Z M 149 239 " clip-rule="nonzero"/></clipPath><clipPath id="477a5daea6"><path d="M 85.027344 116 L 106 116 L 106 137 L 85.027344 137 Z M 85.027344 116 " clip-rule="nonzero"/></clipPath><clipPath id="e394422d69"><path d="M 127 78.84375 L 140 78.84375 L 140 92 L 127 92 Z M 127 78.84375 " clip-rule="nonzero"/></clipPath></defs><path fill="#f9ed32" d="M 176.378906 107.695312 C 177.125 107.695312 177.863281 107.625 178.597656 107.480469 C 179.332031 107.332031 180.042969 107.117188 180.734375 106.832031 C 181.425781 106.546875 182.082031 106.199219 182.703125 105.785156 C 183.324219 105.371094 183.898438 104.902344 184.425781 104.375 C 184.957031 103.847656 185.425781 103.273438 185.84375 102.65625 C 186.257812 102.035156 186.609375 101.382812 186.894531 100.691406 C 187.183594 100.003906 187.398438 99.292969 187.542969 98.5625 C 187.691406 97.832031 187.765625 97.09375 187.765625 96.351562 C 187.765625 95.605469 187.691406 94.867188 187.546875 94.136719 C 187.402344 93.40625 187.1875 92.695312 186.902344 92.007812 C 186.617188 91.316406 186.265625 90.664062 185.851562 90.042969 C 185.4375 89.421875 184.964844 88.847656 184.4375 88.320312 C 183.910156 87.792969 183.335938 87.324219 182.714844 86.910156 C 182.09375 86.492188 181.4375 86.144531 180.746094 85.859375 C 180.058594 85.570312 179.34375 85.355469 178.613281 85.210938 C 177.878906 85.0625 177.140625 84.988281 176.390625 84.988281 C 175.644531 84.988281 174.902344 85.058594 174.171875 85.203125 C 173.4375 85.347656 172.726562 85.5625 172.035156 85.847656 C 171.34375 86.132812 170.6875 86.480469 170.066406 86.894531 C 169.441406 87.304688 168.867188 87.773438 168.339844 88.300781 C 167.808594 88.828125 167.335938 89.398438 166.917969 90.019531 C 166.503906 90.636719 166.152344 91.292969 165.863281 91.980469 C 165.578125 92.667969 165.359375 93.375 165.210938 94.105469 C 165.066406 94.835938 164.992188 95.574219 164.988281 96.320312 C 164.988281 97.066406 165.0625 97.804688 165.207031 98.539062 C 165.355469 99.269531 165.570312 99.980469 165.855469 100.667969 C 166.140625 101.359375 166.492188 102.011719 166.90625 102.632812 C 167.324219 103.253906 167.796875 103.828125 168.324219 104.355469 C 168.851562 104.886719 169.425781 105.355469 170.050781 105.773438 C 170.671875 106.1875 171.328125 106.539062 172.019531 106.824219 C 172.707031 107.109375 173.421875 107.328125 174.15625 107.472656 C 174.886719 107.621094 175.628906 107.695312 176.378906 107.695312 Z M 176.378906 107.695312 " fill-opacity="0.7765" fill-rule="evenodd"/><path fill="#662d91" d="M 231.539062 116.449219 C 234.632812 120.027344 237.191406 123.953125 239.214844 128.222656 C 241.238281 132.496094 242.648438 136.957031 243.453125 141.613281 C 245.761719 155.070312 242.242188 167.53125 244.710938 175.90625 C 245.289062 177.785156 246.0625 179.578125 247.03125 181.289062 C 246.457031 181.625 245.871094 181.941406 245.273438 182.242188 C 244.679688 182.546875 244.074219 182.828125 243.464844 183.097656 C 242.851562 183.363281 242.234375 183.613281 241.609375 183.84375 C 240.984375 184.074219 240.351562 184.289062 239.710938 184.484375 C 239.074219 184.679688 238.429688 184.855469 237.78125 185.015625 C 237.132812 185.171875 236.480469 185.3125 235.824219 185.433594 C 235.167969 185.554688 234.511719 185.65625 233.847656 185.742188 C 233.183594 185.824219 232.519531 185.890625 231.855469 185.933594 C 231.191406 185.980469 230.523438 186.007812 229.855469 186.015625 C 229.1875 186.019531 228.519531 186.007812 227.855469 185.980469 C 227.1875 185.949219 226.523438 185.898438 225.859375 185.828125 C 225.195312 185.761719 224.53125 185.671875 223.875 185.566406 C 223.214844 185.460938 222.558594 185.335938 221.90625 185.191406 C 221.253906 185.046875 220.609375 184.882812 219.964844 184.703125 C 219.324219 184.519531 218.6875 184.320312 218.054688 184.105469 C 217.425781 183.886719 216.800781 183.652344 216.183594 183.398438 C 215.566406 183.144531 214.957031 182.875 214.355469 182.585938 C 213.753906 182.296875 213.160156 181.992188 212.578125 181.671875 C 211.992188 181.347656 211.417969 181.011719 210.851562 180.65625 C 210.289062 180.300781 209.734375 179.929688 209.191406 179.542969 C 208.648438 179.15625 208.117188 178.757812 207.59375 178.339844 C 207.074219 177.921875 206.566406 177.492188 206.070312 177.042969 C 205.574219 176.597656 205.09375 176.140625 204.625 175.664062 C 204.15625 175.191406 203.699219 174.707031 203.257812 174.207031 C 202.816406 173.707031 202.390625 173.195312 201.980469 172.671875 C 201.570312 172.148438 201.171875 171.613281 200.792969 171.066406 C 200.410156 170.519531 200.046875 169.960938 199.695312 169.394531 C 199.347656 168.824219 199.015625 168.25 198.699219 167.664062 C 198.386719 167.078125 198.085938 166.480469 197.804688 165.878906 C 197.523438 165.273438 197.261719 164.664062 197.015625 164.042969 C 196.765625 163.425781 196.539062 162.800781 196.328125 162.167969 C 196.117188 161.539062 195.925781 160.898438 195.753906 160.257812 C 195.578125 159.613281 195.425781 158.96875 195.289062 158.316406 C 195.152344 157.664062 195.035156 157.007812 194.9375 156.351562 C 194.835938 155.691406 194.757812 155.03125 194.695312 154.371094 C 194.636719 153.707031 194.59375 153.042969 194.570312 152.378906 C 194.550781 151.710938 194.546875 151.046875 194.5625 150.382812 C 194.578125 149.714844 194.613281 149.050781 194.667969 148.390625 C 194.71875 147.726562 194.792969 147.0625 194.886719 146.40625 C 194.976562 145.746094 195.089844 145.089844 195.21875 144.4375 C 195.347656 143.785156 195.496094 143.136719 195.664062 142.492188 C 195.832031 141.847656 196.015625 141.207031 196.21875 140.574219 C 196.421875 139.941406 196.644531 139.3125 196.886719 138.691406 C 197.125 138.070312 197.382812 137.457031 197.65625 136.851562 C 197.933594 136.246094 198.226562 135.644531 198.535156 135.054688 C 198.84375 134.46875 199.171875 133.886719 199.515625 133.316406 C 199.855469 132.746094 200.214844 132.183594 200.589844 131.632812 C 200.96875 131.082031 201.359375 130.542969 201.765625 130.015625 C 202.171875 129.488281 202.589844 128.972656 203.027344 128.46875 C 203.464844 127.964844 203.914062 127.472656 204.378906 126.996094 C 204.84375 126.515625 205.320312 126.050781 205.808594 125.601562 C 206.300781 125.148438 206.804688 124.714844 207.320312 124.289062 C 207.835938 123.867188 208.363281 123.460938 208.90625 123.070312 C 209.445312 122.675781 209.996094 122.300781 210.554688 121.941406 C 211.117188 121.582031 211.6875 121.234375 212.269531 120.910156 C 212.847656 120.582031 213.4375 120.269531 214.039062 119.976562 C 214.636719 119.679688 215.242188 119.40625 215.859375 119.144531 C 216.472656 118.886719 217.09375 118.644531 217.722656 118.421875 C 218.351562 118.195312 218.988281 117.992188 219.628906 117.804688 C 220.269531 117.617188 220.914062 117.445312 221.5625 117.296875 C 222.214844 117.144531 222.867188 117.011719 223.523438 116.898438 C 224.183594 116.785156 224.84375 116.691406 225.507812 116.617188 C 226.171875 116.542969 226.835938 116.484375 227.5 116.449219 C 228.167969 116.410156 228.835938 116.390625 229.503906 116.390625 C 230.160156 116.390625 230.855469 116.414062 231.539062 116.449219 Z M 231.539062 116.449219 " fill-opacity="0.7765" fill-rule="evenodd"/><path fill="#92278f" d="M 244.132812 147.535156 C 244.863281 158.683594 242.605469 168.777344 244.710938 175.9375 C 248.3125 188.164062 264.269531 199.242188 256.8125 205.535156 C 254.453125 207.421875 250.394531 207.542969 248.011719 209.394531 C 244.21875 212.34375 246.8125 215.535156 247.148438 217.835938 C 247.308594 218.925781 246.316406 220.683594 243.039062 222.816406 C 245.511719 224.636719 245.285156 226.179688 244.402344 227.601562 C 243.195312 228.425781 241.953125 229.195312 240.679688 229.90625 C 239.402344 230.621094 238.09375 231.273438 236.757812 231.871094 C 235.421875 232.464844 234.0625 233 232.679688 233.472656 C 231.292969 233.945312 229.890625 234.355469 228.46875 234.699219 C 227.050781 235.046875 225.613281 235.328125 224.167969 235.542969 C 222.722656 235.761719 221.265625 235.914062 219.804688 236 C 218.34375 236.085938 216.882812 236.105469 215.421875 236.058594 C 213.960938 236.011719 212.5 235.902344 211.050781 235.722656 C 209.597656 235.546875 208.15625 235.304688 206.726562 234.996094 C 205.292969 234.691406 203.882812 234.320312 202.484375 233.882812 C 201.085938 233.449219 199.714844 232.953125 198.363281 232.394531 C 197.011719 231.835938 195.6875 231.21875 194.390625 230.539062 C 193.09375 229.863281 191.832031 229.125 190.601562 228.335938 C 189.375 227.542969 188.183594 226.699219 187.03125 225.800781 C 185.878906 224.898438 184.769531 223.949219 183.703125 222.953125 C 182.636719 221.953125 181.617188 220.90625 180.644531 219.816406 C 179.675781 218.726562 178.753906 217.59375 177.886719 216.421875 C 177.015625 215.246094 176.203125 214.035156 175.441406 212.789062 C 174.683594 211.542969 173.984375 210.261719 173.339844 208.953125 C 172.695312 207.640625 172.113281 206.304688 171.59375 204.941406 C 171.070312 203.578125 170.609375 202.195312 170.214844 200.792969 C 169.816406 199.386719 169.484375 197.96875 169.21875 196.535156 C 168.949219 195.097656 168.746094 193.65625 168.609375 192.203125 C 168.472656 190.75 168.402344 189.296875 168.398438 187.835938 C 168.394531 186.378906 168.453125 184.921875 168.582031 183.46875 C 168.707031 182.015625 168.902344 180.570312 169.160156 179.132812 C 169.417969 177.699219 169.738281 176.277344 170.125 174.871094 C 170.515625 173.460938 170.964844 172.074219 171.476562 170.710938 C 171.988281 169.34375 172.5625 168.003906 173.195312 166.6875 C 173.832031 165.375 174.523438 164.089844 175.273438 162.835938 C 176.023438 161.585938 176.832031 160.371094 177.691406 159.191406 C 178.554688 158.011719 179.464844 156.871094 180.429688 155.773438 C 181.394531 154.675781 182.40625 153.625 183.464844 152.617188 C 184.523438 151.613281 185.628906 150.65625 186.773438 149.75 C 187.921875 148.84375 189.105469 147.988281 190.328125 147.191406 C 191.554688 146.390625 192.808594 145.648438 194.101562 144.960938 C 195.390625 144.273438 196.710938 143.644531 198.058594 143.078125 C 199.40625 142.511719 200.777344 142.003906 202.171875 141.5625 C 203.566406 141.117188 204.976562 140.738281 206.40625 140.421875 C 207.835938 140.101562 209.273438 139.851562 210.726562 139.664062 C 212.175781 139.476562 213.632812 139.355469 215.09375 139.300781 C 216.558594 139.246094 218.019531 139.253906 219.480469 139.332031 C 220.941406 139.40625 222.394531 139.546875 223.84375 139.753906 C 225.292969 139.960938 226.730469 140.234375 228.152344 140.570312 C 229.578125 140.90625 230.980469 141.308594 232.371094 141.769531 C 233.757812 142.234375 235.121094 142.757812 236.460938 143.34375 C 237.800781 143.929688 239.109375 144.578125 240.390625 145.28125 C 241.671875 145.984375 242.921875 146.746094 244.132812 147.5625 Z M 244.132812 147.535156 " fill-opacity="0.7765" fill-rule="evenodd"/><g clip-path="url(#2d3d8cb07a)"><path fill="#007fc6" d="M 233.738281 254.503906 C 215.296875 261.992188 190.605469 236.878906 187.28125 288.09375 C 175.292969 280.242188 162.585938 273.792969 149.160156 268.75 C 148.609375 267.9375 148.082031 267.109375 147.578125 266.265625 C 147.078125 265.421875 146.605469 264.566406 146.15625 263.691406 C 145.710938 262.816406 145.289062 261.929688 144.898438 261.03125 C 144.507812 260.132812 144.144531 259.222656 143.808594 258.300781 C 143.476562 257.378906 143.167969 256.445312 142.894531 255.503906 C 142.617188 254.5625 142.371094 253.613281 142.15625 252.65625 C 141.9375 251.703125 141.75 250.738281 141.59375 249.769531 C 141.4375 248.800781 141.3125 247.832031 141.21875 246.855469 C 141.121094 245.878906 141.058594 244.902344 141.023438 243.921875 C 140.992188 242.941406 140.988281 241.960938 141.015625 240.980469 C 141.042969 240 141.101562 239.023438 141.191406 238.046875 C 141.277344 237.070312 141.398438 236.09375 141.546875 235.125 C 141.699219 234.15625 141.878906 233.195312 142.089844 232.234375 C 142.296875 231.277344 142.539062 230.328125 142.808594 229.382812 C 143.078125 228.441406 143.378906 227.507812 143.707031 226.582031 C 144.035156 225.660156 144.394531 224.746094 144.777344 223.84375 C 145.164062 222.941406 145.578125 222.054688 146.019531 221.175781 C 146.460938 220.300781 146.929688 219.4375 147.425781 218.59375 C 147.921875 217.746094 148.441406 216.914062 148.992188 216.101562 C 149.539062 215.285156 150.109375 214.488281 150.710938 213.710938 C 151.308594 212.933594 151.929688 212.171875 152.574219 211.433594 C 153.21875 210.691406 153.886719 209.972656 154.578125 209.273438 C 155.269531 208.578125 155.980469 207.902344 156.710938 207.246094 C 157.445312 206.59375 158.199219 205.960938 158.96875 205.355469 C 159.742188 204.746094 160.535156 204.164062 161.34375 203.609375 C 162.152344 203.050781 162.976562 202.519531 163.820312 202.011719 C 164.660156 201.503906 165.519531 201.027344 166.390625 200.574219 C 167.265625 200.121094 168.148438 199.695312 169.046875 199.296875 C 169.949219 198.902344 170.859375 198.53125 171.78125 198.191406 C 172.703125 197.851562 173.636719 197.539062 174.578125 197.253906 C 175.519531 196.972656 176.46875 196.71875 177.425781 196.496094 C 178.382812 196.273438 179.347656 196.078125 180.316406 195.917969 C 181.285156 195.753906 182.261719 195.621094 183.238281 195.515625 C 184.21875 195.414062 185.195312 195.34375 186.179688 195.300781 C 187.164062 195.257812 188.144531 195.25 189.128906 195.269531 C 190.113281 195.289062 191.09375 195.339844 192.074219 195.417969 C 193.054688 195.5 194.03125 195.613281 195.003906 195.753906 C 195.976562 195.894531 196.945312 196.070312 197.90625 196.269531 C 198.871094 196.472656 199.824219 196.703125 200.773438 196.96875 C 201.71875 197.230469 202.660156 197.519531 203.589844 197.839844 C 204.519531 198.160156 205.4375 198.507812 206.34375 198.886719 C 207.253906 199.265625 208.148438 199.671875 209.027344 200.105469 C 209.910156 200.539062 210.777344 200.996094 211.632812 201.484375 C 212.484375 201.972656 213.324219 202.488281 214.144531 203.027344 C 214.964844 203.566406 215.769531 204.128906 216.554688 204.71875 C 217.339844 205.308594 218.105469 205.925781 218.855469 206.5625 C 219.601562 207.199219 220.328125 207.859375 221.03125 208.542969 C 221.738281 209.226562 222.421875 209.929688 223.085938 210.65625 C 223.746094 211.382812 224.382812 212.125 225 212.890625 C 225.613281 213.65625 226.203125 214.441406 226.769531 215.242188 C 227.335938 216.046875 227.875 216.863281 228.390625 217.699219 C 228.902344 218.535156 229.390625 219.386719 229.851562 220.253906 C 230.3125 221.121094 230.746094 222 231.152344 222.894531 C 231.558594 223.785156 231.9375 224.691406 232.285156 225.609375 C 232.632812 226.523438 232.953125 227.453125 233.246094 228.386719 C 233.535156 229.324219 233.796875 230.269531 234.027344 231.222656 C 234.257812 232.175781 234.460938 233.136719 234.632812 234.101562 C 234.804688 235.066406 234.945312 236.035156 235.054688 237.011719 C 235.164062 237.984375 235.246094 238.960938 235.296875 239.941406 C 235.34375 240.921875 235.363281 241.902344 235.351562 242.882812 C 235.339844 243.863281 235.296875 244.839844 235.222656 245.820312 C 235.148438 246.796875 235.042969 247.769531 234.910156 248.742188 C 234.773438 249.714844 234.609375 250.679688 234.414062 251.640625 C 234.21875 252.601562 233.992188 253.554688 233.738281 254.503906 Z M 233.738281 254.503906 " fill-opacity="0.7765" fill-rule="evenodd"/></g><g clip-path="url(#0b98b7427c)"><path fill="#01a6e6" d="M 206.660156 254.765625 C 196.917969 255.171875 189.058594 260.765625 187.28125 288.09375 C 175.359375 280.289062 162.726562 273.867188 149.386719 268.828125 C 149.425781 267.167969 149.601562 265.523438 149.910156 263.890625 C 150.222656 262.257812 150.664062 260.660156 151.234375 259.101562 C 151.804688 257.539062 152.5 256.035156 153.320312 254.589844 C 154.136719 253.140625 155.066406 251.769531 156.109375 250.476562 C 157.152344 249.179688 158.296875 247.976562 159.535156 246.871094 C 160.777344 245.761719 162.097656 244.757812 163.503906 243.867188 C 164.910156 242.972656 166.375 242.199219 167.910156 241.542969 C 169.441406 240.890625 171.015625 240.363281 172.632812 239.96875 C 174.25 239.570312 175.890625 239.304688 177.550781 239.175781 C 179.210938 239.046875 180.871094 239.050781 182.53125 239.191406 C 184.191406 239.335938 185.832031 239.609375 187.445312 240.015625 C 189.058594 240.425781 190.632812 240.960938 192.160156 241.625 C 193.6875 242.289062 195.148438 243.070312 196.546875 243.976562 C 197.945312 244.878906 199.261719 245.886719 200.496094 247.003906 C 201.726562 248.121094 202.863281 249.332031 203.898438 250.632812 C 204.929688 251.9375 205.851562 253.3125 206.660156 254.765625 Z M 206.660156 254.765625 " fill-opacity="0.7765" fill-rule="evenodd"/></g><path fill="#2063b2" d="M 251.226562 207.828125 C 250.070312 208.164062 248.996094 208.675781 248.011719 209.363281 C 244.21875 212.3125 246.8125 215.503906 247.148438 217.804688 C 247.308594 218.898438 246.316406 220.652344 243.039062 222.785156 C 246.828125 225.578125 244.277344 227.710938 242.753906 229.765625 C 235.660156 234.863281 245.527344 245.910156 233.828125 254.472656 C 222.015625 259.324219 207.65625 250.765625 197.953125 257.335938 C 197.800781 256.453125 197.675781 255.566406 197.574219 254.675781 C 197.476562 253.78125 197.40625 252.890625 197.363281 251.992188 C 197.320312 251.097656 197.304688 250.203125 197.320312 249.304688 C 197.332031 248.410156 197.371094 247.511719 197.441406 246.617188 C 197.507812 245.726562 197.605469 244.832031 197.730469 243.945312 C 197.851562 243.058594 198.003906 242.171875 198.183594 241.292969 C 198.363281 240.414062 198.566406 239.542969 198.800781 238.675781 C 199.035156 237.8125 199.292969 236.953125 199.582031 236.101562 C 199.867188 235.253906 200.179688 234.414062 200.519531 233.582031 C 200.859375 232.75 201.222656 231.933594 201.613281 231.125 C 202.003906 230.316406 202.417969 229.519531 202.855469 228.738281 C 203.296875 227.957031 203.757812 227.1875 204.246094 226.433594 C 204.734375 225.679688 205.242188 224.941406 205.777344 224.21875 C 206.308594 223.496094 206.863281 222.792969 207.441406 222.105469 C 208.015625 221.414062 208.613281 220.746094 209.234375 220.09375 C 209.851562 219.445312 210.492188 218.8125 211.148438 218.203125 C 211.804688 217.589844 212.480469 217 213.175781 216.429688 C 213.871094 215.859375 214.582031 215.3125 215.3125 214.785156 C 216.039062 214.261719 216.785156 213.757812 217.542969 213.277344 C 218.304688 212.796875 219.078125 212.34375 219.867188 211.910156 C 220.65625 211.480469 221.457031 211.070312 222.269531 210.691406 C 223.082031 210.308594 223.90625 209.949219 224.742188 209.621094 C 225.578125 209.289062 226.425781 208.984375 227.28125 208.703125 C 228.132812 208.425781 228.996094 208.171875 229.867188 207.949219 C 230.738281 207.722656 231.613281 207.523438 232.496094 207.351562 C 233.378906 207.179688 234.269531 207.035156 235.160156 206.921875 C 236.050781 206.804688 236.945312 206.714844 237.84375 206.652344 C 238.742188 206.59375 239.640625 206.558594 240.539062 206.554688 C 241.4375 206.546875 242.335938 206.570312 243.234375 206.621094 C 244.132812 206.667969 245.027344 206.746094 245.921875 206.851562 C 246.8125 206.957031 247.703125 207.089844 248.589844 207.25 C 249.472656 207.410156 250.351562 207.597656 251.226562 207.8125 Z M 251.226562 207.828125 " fill-opacity="0.7765" fill-rule="evenodd"/><path fill="#12bcbc" d="M 114.0625 208.375 C 114.617188 208.375 115.167969 208.347656 115.71875 208.292969 C 116.265625 208.238281 116.8125 208.160156 117.355469 208.050781 C 117.894531 207.945312 118.433594 207.8125 118.960938 207.652344 C 119.488281 207.492188 120.007812 207.308594 120.519531 207.097656 C 121.03125 206.886719 121.527344 206.652344 122.015625 206.390625 C 122.503906 206.132812 122.976562 205.847656 123.4375 205.542969 C 123.894531 205.238281 124.339844 204.910156 124.765625 204.558594 C 125.195312 204.210938 125.601562 203.839844 125.992188 203.453125 C 126.382812 203.0625 126.753906 202.65625 127.105469 202.230469 C 127.457031 201.804688 127.785156 201.363281 128.09375 200.902344 C 128.398438 200.445312 128.683594 199.972656 128.941406 199.488281 C 129.203125 199.003906 129.441406 198.503906 129.652344 197.996094 C 129.863281 197.488281 130.050781 196.96875 130.210938 196.441406 C 130.371094 195.914062 130.503906 195.382812 130.613281 194.84375 C 130.71875 194.300781 130.800781 193.757812 130.855469 193.210938 C 130.910156 192.660156 130.9375 192.113281 130.9375 191.5625 C 130.9375 191.011719 130.910156 190.460938 130.855469 189.910156 C 130.800781 189.363281 130.71875 188.820312 130.613281 188.28125 C 130.503906 187.738281 130.371094 187.207031 130.210938 186.679688 C 130.050781 186.152344 129.863281 185.632812 129.652344 185.125 C 129.441406 184.613281 129.207031 184.117188 128.945312 183.632812 C 128.683594 183.144531 128.402344 182.675781 128.09375 182.214844 C 127.789062 181.757812 127.457031 181.316406 127.109375 180.890625 C 126.757812 180.464844 126.386719 180.058594 125.996094 179.667969 C 125.605469 179.277344 125.195312 178.910156 124.769531 178.558594 C 124.34375 178.210938 123.898438 177.882812 123.441406 177.574219 C 122.980469 177.269531 122.507812 176.988281 122.019531 176.726562 C 121.535156 176.46875 121.035156 176.234375 120.523438 176.023438 C 120.011719 175.8125 119.492188 175.625 118.964844 175.464844 C 118.4375 175.304688 117.902344 175.171875 117.359375 175.066406 C 116.816406 174.957031 116.273438 174.875 115.722656 174.824219 C 115.171875 174.769531 114.621094 174.742188 114.066406 174.742188 C 113.515625 174.742188 112.964844 174.769531 112.414062 174.824219 C 111.863281 174.878906 111.320312 174.957031 110.777344 175.066406 C 110.234375 175.171875 109.699219 175.308594 109.171875 175.46875 C 108.644531 175.628906 108.125 175.8125 107.613281 176.023438 C 107.101562 176.234375 106.605469 176.46875 106.117188 176.730469 C 105.628906 176.988281 105.15625 177.273438 104.695312 177.578125 C 104.238281 177.882812 103.792969 178.210938 103.367188 178.5625 C 102.941406 178.910156 102.53125 179.28125 102.140625 179.671875 C 101.75 180.0625 101.378906 180.46875 101.03125 180.894531 C 100.679688 181.320312 100.351562 181.761719 100.042969 182.21875 C 99.738281 182.679688 99.453125 183.148438 99.195312 183.636719 C 98.933594 184.121094 98.699219 184.621094 98.488281 185.128906 C 98.273438 185.636719 98.089844 186.15625 97.929688 186.683594 C 97.769531 187.210938 97.636719 187.742188 97.527344 188.285156 C 97.421875 188.824219 97.339844 189.367188 97.285156 189.917969 C 97.230469 190.464844 97.203125 191.015625 97.203125 191.566406 C 97.207031 192.117188 97.234375 192.664062 97.289062 193.210938 C 97.34375 193.757812 97.425781 194.304688 97.535156 194.84375 C 97.644531 195.382812 97.777344 195.914062 97.9375 196.441406 C 98.101562 196.96875 98.285156 197.484375 98.496094 197.992188 C 98.710938 198.5 98.945312 198.996094 99.207031 199.480469 C 99.464844 199.96875 99.75 200.4375 100.058594 200.894531 C 100.363281 201.351562 100.691406 201.792969 101.042969 202.21875 C 101.394531 202.644531 101.761719 203.050781 102.152344 203.441406 C 102.542969 203.828125 102.953125 204.199219 103.378906 204.546875 C 103.804688 204.898438 104.246094 205.222656 104.707031 205.53125 C 105.164062 205.835938 105.636719 206.117188 106.125 206.378906 C 106.609375 206.636719 107.109375 206.875 107.617188 207.085938 C 108.128906 207.296875 108.644531 207.480469 109.171875 207.640625 C 109.703125 207.804688 110.234375 207.9375 110.777344 208.046875 C 111.316406 208.152344 111.863281 208.234375 112.414062 208.289062 C 112.960938 208.34375 113.511719 208.375 114.0625 208.375 Z M 114.0625 208.375 " fill-opacity="0.7765" fill-rule="evenodd"/><path fill="#00b9f1" d="M 149.386719 231.78125 C 150.398438 231.785156 151.398438 231.6875 152.390625 231.496094 C 153.382812 231.300781 154.347656 231.011719 155.28125 230.628906 C 156.214844 230.246094 157.105469 229.777344 157.945312 229.21875 C 158.789062 228.660156 159.566406 228.027344 160.28125 227.316406 C 161 226.605469 161.640625 225.832031 162.203125 224.992188 C 162.765625 224.15625 163.242188 223.273438 163.632812 222.34375 C 164.019531 221.414062 164.3125 220.453125 164.511719 219.464844 C 164.710938 218.476562 164.8125 217.480469 164.8125 216.472656 C 164.816406 215.464844 164.71875 214.46875 164.523438 213.476562 C 164.328125 212.488281 164.039062 211.53125 163.652344 210.597656 C 163.269531 209.667969 162.796875 208.78125 162.234375 207.941406 C 161.675781 207.105469 161.039062 206.328125 160.324219 205.613281 C 159.609375 204.898438 158.835938 204.261719 157.996094 203.703125 C 157.15625 203.140625 156.269531 202.667969 155.335938 202.28125 C 154.402344 201.894531 153.441406 201.601562 152.449219 201.402344 C 151.457031 201.207031 150.457031 201.105469 149.445312 201.105469 C 148.433594 201.105469 147.433594 201.203125 146.441406 201.398438 C 145.453125 201.59375 144.488281 201.882812 143.554688 202.269531 C 142.621094 202.65625 141.734375 203.125 140.894531 203.6875 C 140.050781 204.246094 139.273438 204.882812 138.558594 205.59375 C 137.84375 206.304688 137.207031 207.082031 136.644531 207.917969 C 136.082031 208.753906 135.609375 209.640625 135.21875 210.570312 C 134.832031 211.5 134.542969 212.460938 134.34375 213.449219 C 134.148438 214.4375 134.046875 215.4375 134.046875 216.445312 C 134.050781 217.449219 134.148438 218.441406 134.347656 219.429688 C 134.546875 220.414062 134.835938 221.371094 135.222656 222.296875 C 135.609375 223.226562 136.082031 224.109375 136.640625 224.945312 C 137.199219 225.78125 137.835938 226.554688 138.546875 227.265625 C 139.257812 227.976562 140.03125 228.613281 140.867188 229.171875 C 141.707031 229.734375 142.589844 230.207031 143.519531 230.59375 C 144.449219 230.980469 145.40625 231.273438 146.394531 231.472656 C 147.382812 231.675781 148.378906 231.777344 149.386719 231.78125 Z M 149.386719 231.78125 " fill-opacity="0.7765" fill-rule="evenodd"/><path fill="#8dc63f" d="M 111.636719 167.453125 C 112.414062 167.453125 113.183594 167.375 113.945312 167.226562 C 114.707031 167.074219 115.445312 166.851562 116.160156 166.554688 C 116.878906 166.257812 117.558594 165.894531 118.207031 165.464844 C 118.851562 165.035156 119.449219 164.546875 119.996094 164 C 120.546875 163.453125 121.035156 162.855469 121.464844 162.214844 C 121.898438 161.570312 122.261719 160.890625 122.558594 160.175781 C 122.855469 159.460938 123.078125 158.722656 123.230469 157.964844 C 123.382812 157.207031 123.457031 156.441406 123.457031 155.667969 C 123.457031 154.890625 123.382812 154.125 123.230469 153.367188 C 123.078125 152.609375 122.851562 151.871094 122.554688 151.15625 C 122.257812 150.441406 121.894531 149.761719 121.464844 149.117188 C 121.03125 148.476562 120.542969 147.878906 119.992188 147.332031 C 119.445312 146.785156 118.847656 146.296875 118.199219 145.867188 C 117.554688 145.4375 116.875 145.074219 116.15625 144.78125 C 115.441406 144.484375 114.699219 144.261719 113.941406 144.109375 C 113.179688 143.960938 112.410156 143.882812 111.632812 143.886719 C 110.855469 143.886719 110.089844 143.960938 109.328125 144.113281 C 108.566406 144.261719 107.828125 144.488281 107.109375 144.785156 C 106.394531 145.082031 105.710938 145.445312 105.066406 145.875 C 104.421875 146.304688 103.824219 146.792969 103.277344 147.339844 C 102.730469 147.886719 102.238281 148.484375 101.808594 149.128906 C 101.378906 149.769531 101.011719 150.449219 100.71875 151.164062 C 100.421875 151.878906 100.195312 152.617188 100.046875 153.375 C 99.894531 154.136719 99.820312 154.902344 99.820312 155.675781 C 99.820312 156.449219 99.898438 157.214844 100.050781 157.972656 C 100.203125 158.730469 100.429688 159.464844 100.726562 160.179688 C 101.023438 160.894531 101.386719 161.574219 101.820312 162.214844 C 102.25 162.859375 102.738281 163.453125 103.289062 164 C 103.835938 164.546875 104.433594 165.035156 105.078125 165.464844 C 105.722656 165.894531 106.402344 166.253906 107.121094 166.550781 C 107.835938 166.847656 108.574219 167.070312 109.335938 167.222656 C 110.09375 167.375 110.863281 167.449219 111.636719 167.453125 Z M 111.636719 167.453125 " fill-opacity="0.7765" fill-rule="evenodd"/><g clip-path="url(#477a5daea6)"><path fill="#ffd900" d="M 105.742188 126.390625 C 105.742188 127.0625 105.679688 127.726562 105.546875 128.382812 C 105.417969 129.039062 105.222656 129.675781 104.964844 130.296875 C 104.707031 130.914062 104.390625 131.503906 104.019531 132.058594 C 103.644531 132.617188 103.222656 133.132812 102.746094 133.605469 C 102.269531 134.078125 101.753906 134.503906 101.195312 134.875 C 100.636719 135.246094 100.046875 135.5625 99.425781 135.816406 C 98.804688 136.074219 98.164062 136.269531 97.507812 136.398438 C 96.847656 136.53125 96.183594 136.59375 95.511719 136.59375 C 94.839844 136.59375 94.171875 136.53125 93.515625 136.398438 C 92.855469 136.269531 92.214844 136.074219 91.59375 135.816406 C 90.972656 135.5625 90.382812 135.246094 89.824219 134.875 C 89.265625 134.503906 88.75 134.078125 88.273438 133.605469 C 87.800781 133.132812 87.375 132.617188 87 132.058594 C 86.628906 131.503906 86.3125 130.914062 86.054688 130.296875 C 85.796875 129.675781 85.605469 129.039062 85.472656 128.382812 C 85.34375 127.726562 85.277344 127.0625 85.277344 126.390625 C 85.277344 125.722656 85.34375 125.058594 85.472656 124.402344 C 85.605469 123.742188 85.796875 123.105469 86.054688 122.488281 C 86.3125 121.867188 86.628906 121.28125 87 120.722656 C 87.375 120.164062 87.800781 119.652344 88.273438 119.175781 C 88.75 118.703125 89.265625 118.28125 89.824219 117.90625 C 90.382812 117.535156 90.972656 117.222656 91.59375 116.964844 C 92.214844 116.707031 92.855469 116.515625 93.515625 116.382812 C 94.171875 116.253906 94.839844 116.1875 95.511719 116.1875 C 96.183594 116.1875 96.847656 116.253906 97.507812 116.382812 C 98.164062 116.515625 98.804688 116.707031 99.425781 116.964844 C 100.046875 117.222656 100.636719 117.535156 101.195312 117.90625 C 101.753906 118.28125 102.269531 118.703125 102.746094 119.175781 C 103.222656 119.652344 103.644531 120.164062 104.019531 120.722656 C 104.390625 121.28125 104.707031 121.867188 104.964844 122.488281 C 105.222656 123.105469 105.417969 123.742188 105.546875 124.402344 C 105.679688 125.058594 105.742188 125.722656 105.742188 126.390625 Z M 105.742188 126.390625 " fill-opacity="0.7765" fill-rule="nonzero"/></g><path fill="#009444" d="M 117.132812 107.695312 C 117.757812 107.695312 118.378906 107.636719 118.996094 107.515625 C 119.609375 107.394531 120.207031 107.214844 120.789062 106.972656 C 121.367188 106.734375 121.917969 106.441406 122.441406 106.09375 C 122.964844 105.746094 123.445312 105.351562 123.890625 104.910156 C 124.335938 104.46875 124.730469 103.988281 125.078125 103.46875 C 125.429688 102.949219 125.722656 102.398438 125.964844 101.820312 C 126.203125 101.242188 126.386719 100.648438 126.507812 100.035156 C 126.632812 99.421875 126.691406 98.800781 126.691406 98.175781 C 126.691406 97.550781 126.632812 96.929688 126.511719 96.316406 C 126.386719 95.703125 126.207031 95.105469 125.96875 94.527344 C 125.726562 93.949219 125.433594 93.402344 125.085938 92.882812 C 124.738281 92.359375 124.339844 91.878906 123.898438 91.4375 C 123.453125 90.996094 122.972656 90.601562 122.449219 90.253906 C 121.929688 89.902344 121.378906 89.609375 120.796875 89.371094 C 120.21875 89.132812 119.621094 88.949219 119.003906 88.828125 C 118.390625 88.707031 117.769531 88.644531 117.140625 88.644531 C 116.511719 88.644531 115.890625 88.707031 115.277344 88.828125 C 114.660156 88.949219 114.0625 89.128906 113.484375 89.367188 C 112.90625 89.609375 112.355469 89.902344 111.832031 90.25 C 111.308594 90.597656 110.828125 90.992188 110.382812 91.433594 C 109.941406 91.875 109.542969 92.355469 109.195312 92.878906 C 108.847656 93.398438 108.550781 93.945312 108.3125 94.523438 C 108.070312 95.101562 107.890625 95.699219 107.769531 96.3125 C 107.644531 96.925781 107.585938 97.546875 107.585938 98.171875 C 107.585938 98.796875 107.648438 99.414062 107.769531 100.027344 C 107.894531 100.640625 108.074219 101.234375 108.316406 101.8125 C 108.554688 102.390625 108.847656 102.9375 109.199219 103.457031 C 109.546875 103.976562 109.941406 104.457031 110.382812 104.898438 C 110.828125 105.339844 111.308594 105.738281 111.832031 106.085938 C 112.351562 106.433594 112.902344 106.726562 113.480469 106.964844 C 114.058594 107.207031 114.65625 107.386719 115.269531 107.511719 C 115.882812 107.632812 116.503906 107.695312 117.132812 107.695312 Z M 117.132812 107.695312 " fill-opacity="0.7765" fill-rule="evenodd"/><path fill="#56ba48" d="M 120.375 131.4375 C 120.789062 131.4375 121.199219 131.398438 121.605469 131.316406 C 122.011719 131.238281 122.40625 131.117188 122.789062 130.960938 C 123.171875 130.800781 123.535156 130.609375 123.878906 130.378906 C 124.226562 130.148438 124.542969 129.886719 124.835938 129.59375 C 125.128906 129.304688 125.390625 128.984375 125.621094 128.640625 C 125.851562 128.296875 126.046875 127.9375 126.203125 127.554688 C 126.363281 127.171875 126.484375 126.777344 126.5625 126.375 C 126.644531 125.96875 126.683594 125.558594 126.683594 125.144531 C 126.683594 124.734375 126.644531 124.324219 126.5625 123.917969 C 126.484375 123.511719 126.363281 123.121094 126.203125 122.738281 C 126.046875 122.355469 125.851562 121.992188 125.621094 121.648438 C 125.390625 121.308594 125.128906 120.988281 124.835938 120.695312 C 124.542969 120.40625 124.226562 120.144531 123.878906 119.914062 C 123.535156 119.683594 123.171875 119.492188 122.789062 119.332031 C 122.40625 119.175781 122.011719 119.054688 121.605469 118.976562 C 121.199219 118.894531 120.789062 118.855469 120.375 118.855469 C 119.960938 118.855469 119.550781 118.894531 119.144531 118.976562 C 118.738281 119.054688 118.34375 119.175781 117.960938 119.332031 C 117.578125 119.492188 117.210938 119.683594 116.867188 119.914062 C 116.523438 120.144531 116.203125 120.40625 115.910156 120.695312 C 115.617188 120.988281 115.355469 121.308594 115.128906 121.648438 C 114.898438 121.992188 114.703125 122.355469 114.542969 122.738281 C 114.386719 123.121094 114.265625 123.511719 114.183594 123.917969 C 114.105469 124.324219 114.0625 124.734375 114.0625 125.144531 C 114.0625 125.558594 114.105469 125.96875 114.1875 126.371094 C 114.269531 126.777344 114.390625 127.171875 114.546875 127.550781 C 114.707031 127.933594 114.902344 128.296875 115.132812 128.636719 C 115.363281 128.980469 115.625 129.300781 115.917969 129.589844 C 116.210938 129.882812 116.527344 130.144531 116.871094 130.375 C 117.214844 130.601562 117.578125 130.796875 117.960938 130.957031 C 118.34375 131.113281 118.738281 131.234375 119.144531 131.316406 C 119.550781 131.398438 119.960938 131.4375 120.375 131.4375 Z M 120.375 131.4375 " fill-opacity="0.7765" fill-rule="evenodd"/><g clip-path="url(#e394422d69)"><path fill="#fbad17" d="M 133.535156 91.425781 C 133.953125 91.425781 134.363281 91.386719 134.769531 91.304688 C 135.175781 91.226562 135.570312 91.105469 135.953125 90.949219 C 136.335938 90.789062 136.699219 90.597656 137.042969 90.367188 C 137.386719 90.136719 137.707031 89.875 138 89.582031 C 138.292969 89.292969 138.554688 88.972656 138.785156 88.628906 C 139.015625 88.285156 139.210938 87.925781 139.367188 87.542969 C 139.527344 87.160156 139.644531 86.765625 139.726562 86.363281 C 139.808594 85.957031 139.847656 85.546875 139.847656 85.132812 C 139.847656 84.722656 139.808594 84.3125 139.726562 83.90625 C 139.644531 83.5 139.527344 83.109375 139.367188 82.726562 C 139.210938 82.34375 139.015625 81.980469 138.785156 81.636719 C 138.554688 81.296875 138.292969 80.976562 138 80.683594 C 137.707031 80.394531 137.386719 80.132812 137.042969 79.902344 C 136.699219 79.671875 136.335938 79.480469 135.953125 79.320312 C 135.570312 79.164062 135.175781 79.042969 134.769531 78.964844 C 134.363281 78.882812 133.953125 78.84375 133.535156 78.84375 C 133.121094 78.84375 132.710938 78.882812 132.304688 78.964844 C 131.898438 79.042969 131.503906 79.164062 131.121094 79.320312 C 130.738281 79.480469 130.375 79.671875 130.03125 79.902344 C 129.6875 80.132812 129.367188 80.394531 129.074219 80.683594 C 128.78125 80.976562 128.519531 81.296875 128.289062 81.636719 C 128.058594 81.980469 127.863281 82.34375 127.707031 82.726562 C 127.546875 83.109375 127.429688 83.5 127.347656 83.90625 C 127.265625 84.3125 127.226562 84.722656 127.226562 85.132812 C 127.226562 85.546875 127.269531 85.957031 127.351562 86.359375 C 127.429688 86.765625 127.550781 87.160156 127.710938 87.539062 C 127.871094 87.921875 128.0625 88.285156 128.292969 88.625 C 128.523438 88.96875 128.785156 89.289062 129.078125 89.578125 C 129.371094 89.871094 129.691406 90.132812 130.035156 90.363281 C 130.378906 90.589844 130.742188 90.785156 131.125 90.945312 C 131.507812 91.101562 131.902344 91.222656 132.308594 91.304688 C 132.710938 91.382812 133.121094 91.425781 133.535156 91.425781 Z M 133.535156 91.425781 " fill-opacity="0.7765" fill-rule="evenodd"/></g><path fill="#f15c22" d="M 94.773438 105.453125 C 95.085938 105.453125 95.394531 105.421875 95.703125 105.359375 C 96.011719 105.296875 96.308594 105.203125 96.597656 105.082031 C 96.886719 104.960938 97.160156 104.816406 97.421875 104.640625 C 97.679688 104.464844 97.921875 104.265625 98.140625 104.046875 C 98.363281 103.824219 98.558594 103.582031 98.730469 103.324219 C 98.90625 103.0625 99.050781 102.789062 99.171875 102.5 C 99.289062 102.210938 99.378906 101.910156 99.4375 101.605469 C 99.5 101.296875 99.527344 100.988281 99.527344 100.675781 C 99.527344 100.363281 99.496094 100.054688 99.433594 99.746094 C 99.371094 99.441406 99.28125 99.144531 99.160156 98.855469 C 99.039062 98.566406 98.890625 98.292969 98.714844 98.035156 C 98.542969 97.773438 98.34375 97.535156 98.121094 97.316406 C 97.898438 97.09375 97.65625 96.898438 97.394531 96.726562 C 97.136719 96.550781 96.859375 96.40625 96.570312 96.285156 C 96.28125 96.167969 95.980469 96.078125 95.675781 96.015625 C 95.367188 95.957031 95.058594 95.925781 94.742188 95.925781 C 94.429688 95.929688 94.121094 95.957031 93.8125 96.019531 C 93.503906 96.082031 93.207031 96.171875 92.917969 96.292969 C 92.628906 96.414062 92.351562 96.558594 92.09375 96.734375 C 91.832031 96.90625 91.589844 97.105469 91.371094 97.324219 C 91.148438 97.546875 90.949219 97.785156 90.777344 98.046875 C 90.601562 98.304688 90.457031 98.582031 90.335938 98.871094 C 90.214844 99.15625 90.125 99.457031 90.066406 99.761719 C 90.003906 100.070312 89.972656 100.378906 89.972656 100.691406 C 89.972656 101.003906 90.007812 101.3125 90.066406 101.621094 C 90.128906 101.929688 90.222656 102.226562 90.34375 102.515625 C 90.464844 102.804688 90.613281 103.078125 90.789062 103.339844 C 90.964844 103.601562 91.160156 103.839844 91.382812 104.0625 C 91.609375 104.28125 91.851562 104.480469 92.113281 104.652344 C 92.375 104.828125 92.648438 104.972656 92.941406 105.09375 C 93.230469 105.210938 93.53125 105.300781 93.839844 105.363281 C 94.148438 105.425781 94.457031 105.453125 94.773438 105.453125 Z M 94.773438 105.453125 " fill-opacity="0.7765" fill-rule="evenodd"/><path fill="#fbad17" d="M 208.328125 154.042969 C 208.328125 155.347656 208.261719 156.648438 208.132812 157.945312 C 208.007812 159.242188 207.816406 160.53125 207.558594 161.808594 C 207.304688 163.085938 206.988281 164.351562 206.609375 165.597656 C 206.226562 166.84375 205.789062 168.070312 205.289062 169.277344 C 204.789062 170.480469 204.230469 171.65625 203.613281 172.804688 C 202.996094 173.957031 202.324219 175.074219 201.597656 176.15625 C 200.871094 177.242188 200.09375 178.285156 199.265625 179.292969 C 198.4375 180.300781 197.558594 181.265625 196.636719 182.1875 C 195.710938 183.109375 194.742188 183.984375 193.730469 184.8125 C 192.722656 185.636719 191.671875 186.414062 190.585938 187.136719 C 189.5 187.863281 188.378906 188.53125 187.226562 189.144531 C 186.074219 189.761719 184.890625 190.316406 183.683594 190.816406 C 182.476562 191.3125 181.246094 191.753906 179.996094 192.132812 C 178.746094 192.507812 177.476562 192.824219 176.195312 193.082031 C 174.914062 193.335938 173.621094 193.527344 172.320312 193.652344 C 171.019531 193.78125 169.714844 193.84375 168.410156 193.84375 C 167.101562 193.84375 165.796875 193.78125 164.496094 193.652344 C 163.195312 193.527344 161.902344 193.335938 160.621094 193.082031 C 159.339844 192.824219 158.070312 192.507812 156.820312 192.132812 C 155.570312 191.753906 154.339844 191.3125 153.132812 190.816406 C 151.925781 190.316406 150.742188 189.761719 149.589844 189.144531 C 148.4375 188.53125 147.316406 187.863281 146.230469 187.136719 C 145.144531 186.414062 144.09375 185.636719 143.085938 184.8125 C 142.074219 183.984375 141.105469 183.109375 140.179688 182.1875 C 139.257812 181.265625 138.378906 180.300781 137.550781 179.292969 C 136.722656 178.285156 135.945312 177.242188 135.21875 176.15625 C 134.492188 175.074219 133.820312 173.957031 133.203125 172.804688 C 132.585938 171.65625 132.027344 170.480469 131.527344 169.277344 C 131.027344 168.070312 130.589844 166.84375 130.207031 165.597656 C 129.828125 164.351562 129.511719 163.085938 129.257812 161.808594 C 129 160.53125 128.808594 159.242188 128.683594 157.945312 C 128.554688 156.648438 128.488281 155.347656 128.488281 154.042969 C 128.488281 152.742188 128.554688 151.441406 128.683594 150.144531 C 128.808594 148.847656 129 147.558594 129.257812 146.28125 C 129.511719 145 129.828125 143.738281 130.207031 142.492188 C 130.589844 141.242188 131.027344 140.019531 131.527344 138.8125 C 132.027344 137.609375 132.585938 136.433594 133.203125 135.28125 C 133.820312 134.132812 134.492188 133.015625 135.21875 131.933594 C 135.945312 130.847656 136.722656 129.804688 137.550781 128.796875 C 138.378906 127.789062 139.257812 126.824219 140.179688 125.902344 C 141.105469 124.980469 142.074219 124.105469 143.085938 123.277344 C 144.09375 122.453125 145.144531 121.675781 146.230469 120.953125 C 147.316406 120.226562 148.4375 119.558594 149.589844 118.945312 C 150.742188 118.328125 151.925781 117.773438 153.132812 117.273438 C 154.339844 116.773438 155.570312 116.335938 156.820312 115.957031 C 158.070312 115.578125 159.339844 115.261719 160.621094 115.007812 C 161.902344 114.753906 163.195312 114.5625 164.496094 114.433594 C 165.796875 114.308594 167.101562 114.242188 168.410156 114.242188 C 169.714844 114.242188 171.019531 114.308594 172.320312 114.433594 C 173.621094 114.5625 174.914062 114.753906 176.195312 115.007812 C 177.476562 115.261719 178.746094 115.578125 179.996094 115.957031 C 181.246094 116.335938 182.476562 116.773438 183.683594 117.273438 C 184.890625 117.773438 186.074219 118.328125 187.226562 118.945312 C 188.378906 119.558594 189.5 120.226562 190.585938 120.953125 C 191.671875 121.675781 192.722656 122.453125 193.730469 123.277344 C 194.742188 124.105469 195.710938 124.980469 196.636719 125.902344 C 197.558594 126.824219 198.4375 127.789062 199.265625 128.796875 C 200.09375 129.804688 200.871094 130.847656 201.597656 131.933594 C 202.324219 133.015625 202.996094 134.132812 203.613281 135.28125 C 204.230469 136.433594 204.789062 137.609375 205.289062 138.8125 C 205.789062 140.019531 206.226562 141.242188 206.609375 142.492188 C 206.988281 143.738281 207.304688 145 207.558594 146.28125 C 207.816406 147.558594 208.007812 148.847656 208.132812 150.144531 C 208.261719 151.441406 208.328125 152.742188 208.328125 154.042969 Z M 208.328125 154.042969 " fill-opacity="0.7765" fill-rule="nonzero"/><path fill="#ec008b" d="M 190.460938 93.800781 C 209.589844 97.734375 225.617188 107.289062 235.066406 121.03125 C 234.988281 121.613281 234.886719 122.191406 234.769531 122.769531 C 234.652344 123.34375 234.519531 123.914062 234.367188 124.484375 C 234.214844 125.050781 234.042969 125.613281 233.855469 126.167969 C 233.667969 126.726562 233.464844 127.277344 233.242188 127.820312 C 233.019531 128.367188 232.78125 128.902344 232.527344 129.433594 C 232.269531 129.960938 232 130.484375 231.710938 130.996094 C 231.425781 131.507812 231.121094 132.011719 230.804688 132.507812 C 230.484375 133 230.148438 133.484375 229.800781 133.957031 C 229.453125 134.429688 229.089844 134.894531 228.710938 135.34375 C 228.335938 135.792969 227.941406 136.234375 227.539062 136.660156 C 227.132812 137.085938 226.714844 137.5 226.285156 137.902344 C 225.855469 138.304688 225.410156 138.691406 224.957031 139.066406 C 224.503906 139.4375 224.035156 139.796875 223.558594 140.140625 C 223.082031 140.488281 222.59375 140.816406 222.097656 141.132812 C 221.601562 141.445312 221.09375 141.746094 220.578125 142.03125 C 220.0625 142.3125 219.535156 142.582031 219.003906 142.832031 C 218.472656 143.082031 217.929688 143.316406 217.382812 143.535156 C 216.835938 143.753906 216.28125 143.953125 215.722656 144.136719 C 215.164062 144.320312 214.597656 144.488281 214.027344 144.636719 C 213.457031 144.785156 212.882812 144.914062 212.304688 145.027344 C 211.726562 145.140625 211.148438 145.238281 210.5625 145.3125 C 209.980469 145.390625 209.390625 145.449219 208.804688 145.492188 C 208.21875 145.53125 207.628906 145.554688 207.039062 145.558594 C 206.449219 145.566406 205.859375 145.550781 205.273438 145.519531 C 204.683594 145.488281 204.097656 145.4375 203.511719 145.371094 C 202.925781 145.300781 202.34375 145.214844 201.765625 145.113281 C 201.183594 145.007812 200.609375 144.886719 200.035156 144.746094 C 199.464844 144.609375 198.894531 144.453125 198.332031 144.277344 C 197.769531 144.101562 197.214844 143.910156 196.664062 143.703125 C 196.113281 143.492188 195.570312 143.265625 195.03125 143.023438 C 194.496094 142.78125 193.964844 142.523438 193.445312 142.246094 C 192.925781 141.972656 192.414062 141.683594 191.910156 141.375 C 191.410156 141.066406 190.917969 140.746094 190.433594 140.410156 C 189.953125 140.070312 189.480469 139.71875 189.019531 139.355469 C 188.558594 138.988281 188.109375 138.605469 187.671875 138.214844 C 187.234375 137.820312 186.8125 137.410156 186.398438 136.992188 C 185.988281 136.570312 185.589844 136.140625 185.203125 135.695312 C 184.820312 135.25 184.449219 134.792969 184.09375 134.324219 C 183.734375 133.855469 183.394531 133.378906 183.066406 132.890625 C 182.742188 132.402344 182.429688 131.902344 182.132812 131.394531 C 181.835938 130.886719 181.558594 130.371094 181.292969 129.84375 C 181.03125 129.320312 180.785156 128.785156 180.554688 128.246094 C 180.324219 127.703125 180.109375 127.15625 179.914062 126.601562 C 179.714844 126.050781 179.535156 125.488281 179.375 124.925781 C 179.210938 124.359375 179.070312 123.789062 178.941406 123.21875 C 178.816406 122.644531 178.707031 122.066406 178.617188 121.484375 C 178.527344 120.90625 178.453125 120.324219 178.398438 119.738281 C 178.34375 119.152344 178.308594 118.566406 178.292969 117.980469 C 178.273438 117.390625 178.273438 116.804688 178.292969 116.21875 C 178.3125 115.628906 178.347656 115.042969 178.402344 114.460938 C 178.457031 113.875 178.53125 113.292969 178.621094 112.710938 C 178.714844 112.128906 178.820312 111.554688 178.949219 110.980469 C 179.078125 110.40625 179.222656 109.835938 179.382812 109.273438 C 179.546875 108.707031 179.726562 108.148438 179.921875 107.59375 C 180.121094 107.042969 180.335938 106.492188 180.566406 105.953125 C 180.796875 105.414062 181.042969 104.878906 181.308594 104.355469 C 181.574219 103.832031 181.851562 103.3125 182.148438 102.804688 C 182.445312 102.296875 182.757812 101.800781 183.085938 101.3125 C 183.414062 100.824219 183.753906 100.34375 184.113281 99.878906 C 184.46875 99.410156 184.839844 98.953125 185.226562 98.511719 C 185.609375 98.066406 186.007812 97.632812 186.421875 97.214844 C 186.835938 96.792969 187.257812 96.386719 187.695312 95.992188 C 188.132812 95.601562 188.582031 95.21875 189.042969 94.855469 C 189.503906 94.488281 189.976562 94.136719 190.460938 93.800781 Z M 190.460938 93.800781 " fill-opacity="0.7765" fill-rule="evenodd"/><path fill="#56ba48" d="M 154.96875 136.601562 C 155.75 136.601562 156.53125 136.5625 157.3125 136.488281 C 158.089844 136.410156 158.863281 136.296875 159.632812 136.144531 C 160.402344 135.992188 161.160156 135.804688 161.910156 135.578125 C 162.65625 135.351562 163.394531 135.089844 164.117188 134.789062 C 164.839844 134.492188 165.546875 134.160156 166.238281 133.789062 C 166.929688 133.421875 167.601562 133.023438 168.253906 132.589844 C 168.902344 132.15625 169.53125 131.691406 170.136719 131.195312 C 170.742188 130.699219 171.324219 130.175781 171.875 129.625 C 172.429688 129.074219 172.957031 128.496094 173.453125 127.890625 C 173.949219 127.289062 174.414062 126.664062 174.851562 126.011719 C 175.285156 125.363281 175.6875 124.695312 176.058594 124.007812 C 176.425781 123.320312 176.761719 122.613281 177.0625 121.890625 C 177.359375 121.171875 177.625 120.4375 177.851562 119.691406 C 178.078125 118.941406 178.269531 118.1875 178.421875 117.421875 C 178.574219 116.65625 178.691406 115.882812 178.765625 115.105469 C 178.84375 114.328125 178.882812 113.550781 178.882812 112.769531 C 178.882812 111.988281 178.84375 111.210938 178.769531 110.433594 C 178.691406 109.65625 178.578125 108.886719 178.425781 108.121094 C 178.273438 107.355469 178.082031 106.597656 177.855469 105.851562 C 177.628906 105.101562 177.363281 104.367188 177.066406 103.648438 C 176.765625 102.925781 176.429688 102.222656 176.0625 101.53125 C 175.691406 100.84375 175.289062 100.175781 174.855469 99.527344 C 174.421875 98.875 173.957031 98.25 173.457031 97.648438 C 172.960938 97.042969 172.4375 96.464844 171.882812 95.914062 C 171.328125 95.359375 170.75 94.835938 170.144531 94.339844 C 169.539062 93.847656 168.910156 93.382812 168.261719 92.949219 C 167.609375 92.515625 166.9375 92.113281 166.25 91.746094 C 165.558594 91.375 164.851562 91.042969 164.128906 90.746094 C 163.402344 90.445312 162.667969 90.183594 161.917969 89.957031 C 161.167969 89.730469 160.410156 89.539062 159.640625 89.386719 C 158.875 89.234375 158.101562 89.121094 157.320312 89.042969 C 156.542969 88.96875 155.761719 88.929688 154.976562 88.929688 C 154.195312 88.929688 153.414062 88.96875 152.632812 89.042969 C 151.855469 89.121094 151.082031 89.234375 150.3125 89.386719 C 149.546875 89.539062 148.785156 89.726562 148.039062 89.953125 C 147.289062 90.179688 146.550781 90.445312 145.828125 90.742188 C 145.105469 91.042969 144.398438 91.375 143.707031 91.742188 C 143.015625 92.109375 142.34375 92.511719 141.695312 92.945312 C 141.042969 93.378906 140.414062 93.84375 139.808594 94.339844 C 139.203125 94.832031 138.625 95.359375 138.070312 95.910156 C 137.515625 96.460938 136.992188 97.039062 136.496094 97.644531 C 136 98.246094 135.53125 98.871094 135.097656 99.523438 C 134.664062 100.171875 134.261719 100.839844 133.890625 101.527344 C 133.523438 102.214844 133.1875 102.921875 132.886719 103.644531 C 132.589844 104.363281 132.324219 105.097656 132.097656 105.84375 C 131.871094 106.59375 131.679688 107.347656 131.527344 108.113281 C 131.375 108.878906 131.261719 109.652344 131.183594 110.429688 C 131.105469 111.207031 131.066406 111.984375 131.066406 112.765625 C 131.070312 113.546875 131.109375 114.324219 131.1875 115.101562 C 131.265625 115.875 131.382812 116.648438 131.535156 117.410156 C 131.6875 118.175781 131.878906 118.933594 132.105469 119.679688 C 132.335938 120.425781 132.597656 121.160156 132.898438 121.878906 C 133.199219 122.597656 133.535156 123.304688 133.902344 123.992188 C 134.273438 124.679688 134.675781 125.347656 135.109375 125.996094 C 135.542969 126.644531 136.007812 127.269531 136.507812 127.871094 C 137.003906 128.476562 137.527344 129.054688 138.082031 129.605469 C 138.632812 130.15625 139.210938 130.679688 139.816406 131.175781 C 140.421875 131.671875 141.050781 132.136719 141.699219 132.570312 C 142.351562 133.003906 143.019531 133.402344 143.710938 133.773438 C 144.398438 134.140625 145.105469 134.472656 145.828125 134.773438 C 146.550781 135.074219 147.285156 135.335938 148.035156 135.5625 C 148.78125 135.792969 149.539062 135.980469 150.308594 136.136719 C 151.074219 136.289062 151.847656 136.40625 152.625 136.484375 C 153.40625 136.5625 154.1875 136.601562 154.96875 136.601562 Z M 154.96875 136.601562 " fill-opacity="0.7765" fill-rule="evenodd"/></svg>