<svg xmlns="http://www.w3.org/2000/svg" xmlns:xlink="http://www.w3.org/1999/xlink" width="500" zoomAndPan="magnify" viewBox="0 0 375 374.999991" height="500" preserveAspectRatio="xMidYMid meet" version="1.0"><defs><clipPath id="454bc29302"><path d="M 188 97.316406 L 279.660156 97.316406 L 279.660156 277.316406 L 188 277.316406 Z M 188 97.316406 " clip-rule="nonzero"/></clipPath><clipPath id="239fc98a6a"><path d="M 87.679688 97.316406 L 179 97.316406 L 179 277.316406 L 87.679688 277.316406 Z M 87.679688 97.316406 " clip-rule="nonzero"/></clipPath></defs><g clip-path="url(#454bc29302)"><path fill="#009986" d="M 226.507812 107.042969 C 222.992188 101.253906 215.976562 97.375 208.726562 97.375 C 197.699219 97.375 188.667969 106.402344 188.667969 117.417969 C 188.667969 164.027344 188.667969 210.632812 188.667969 257.21875 C 188.667969 268.238281 197.699219 277.261719 208.726562 277.261719 C 219.167969 277.261719 227.816406 269.160156 228.714844 258.933594 C 230.625 259.425781 231.890625 259.472656 231.910156 259.472656 C 233.328125 259.75 234.804688 259.902344 236.308594 259.902344 C 249.070312 259.902344 259.410156 249.570312 259.410156 236.8125 C 259.410156 234.558594 259.085938 232.394531 258.488281 230.359375 C 270.996094 224.808594 279.65625 214.261719 279.65625 199.746094 C 279.65625 191.8125 276.804688 184.546875 272.085938 178.929688 C 274.25 174.8125 275.6875 170.160156 275.6875 165.488281 C 275.6875 151.894531 264.664062 140.875 251.0625 140.875 C 250.546875 140.875 250.03125 140.898438 249.535156 140.917969 C 250.695312 138.066406 251.335938 134.9375 251.335938 131.65625 C 251.347656 117.632812 240.34375 106.59375 226.507812 107.042969 Z M 212.457031 184.519531 C 217.519531 184.519531 221.640625 188.640625 221.640625 193.695312 C 221.640625 198.777344 217.519531 202.875 212.457031 202.875 C 209.132812 202.875 206.238281 201.140625 204.628906 198.5 C 194.847656 203.238281 194.117188 219.9375 194.074219 223.386719 L 194.074219 257.21875 C 194.074219 265.234375 200.679688 271.839844 208.726562 271.839844 C 216.363281 271.839844 222.792969 265.859375 223.332031 258.246094 L 223.417969 256.917969 C 219.640625 254.945312 215.394531 251.453125 212.519531 245.253906 L 212.496094 245.253906 C 207.410156 245.253906 203.316406 241.160156 203.316406 236.078125 C 203.316406 231.019531 207.410156 226.902344 212.496094 226.902344 C 217.558594 226.902344 221.65625 231.019531 221.65625 236.078125 C 221.65625 238.671875 220.582031 241.011719 218.867188 242.679688 C 227.640625 261.351562 253.980469 256.65625 253.980469 236.804688 C 253.980469 235.28125 253.789062 233.761719 253.398438 232.28125 C 249.300781 233.589844 246.066406 233.996094 240.292969 233.84375 C 238.707031 236.632812 235.722656 238.519531 232.292969 238.519531 C 227.230469 238.519531 223.109375 234.425781 223.109375 229.34375 C 223.109375 224.285156 227.207031 220.167969 232.292969 220.167969 C 236.730469 220.167969 240.421875 223.316406 241.28125 227.496094 C 251.101562 227.902344 260.5 223.210938 260.996094 222.953125 C 269.101562 218.152344 274.230469 209.382812 274.230469 199.734375 C 274.230469 193.945312 272.40625 188.371094 268.996094 183.761719 C 265.996094 187.726562 261.46875 191.863281 254.945312 193.882812 C 254.003906 197.933594 250.359375 200.933594 246.023438 200.933594 C 240.960938 200.933594 236.839844 196.816406 236.839844 191.757812 C 236.839844 186.699219 240.960938 182.582031 246.023438 182.582031 C 249.304688 182.582031 252.160156 184.296875 253.789062 186.871094 C 264.449219 182.667969 268.933594 172.484375 269.101562 172.097656 C 269.875 170 270.28125 167.746094 270.28125 165.472656 C 270.28125 154.863281 261.679688 146.289062 251.0625 146.289062 C 250.671875 146.289062 250.265625 146.289062 249.859375 146.3125 L 248.53125 146.394531 C 246.109375 151.625 240.121094 159.023438 228.347656 164.617188 C 228.390625 165.003906 228.414062 165.390625 228.414062 165.777344 C 228.414062 170.859375 224.316406 174.953125 219.253906 174.953125 C 214.171875 174.953125 210.074219 170.859375 210.074219 165.777344 C 210.074219 160.71875 214.171875 156.601562 219.253906 156.601562 C 221.527344 156.601562 223.609375 157.4375 225.195312 158.808594 C 235.296875 154.796875 245.9375 143.136719 245.9375 131.644531 C 245.9375 121.269531 237.703125 112.824219 227.382812 112.460938 C 227.277344 116.726562 225.433594 124.1875 221.164062 129.007812 C 221.871094 130.320312 222.277344 131.820312 222.277344 133.402344 C 222.277344 138.460938 218.15625 142.582031 213.09375 142.582031 C 208.035156 142.582031 203.914062 138.460938 203.914062 133.402344 C 203.914062 128.347656 208.035156 124.226562 213.09375 124.226562 C 213.953125 124.226562 214.789062 124.359375 215.582031 124.570312 C 220.195312 118.695312 223.457031 110.589844 217.730469 105.984375 C 215.242188 103.96875 212.046875 102.832031 208.722656 102.789062 C 200.675781 102.660156 194.070312 109.371094 194.070312 117.410156 L 194.070312 200.230469 C 196.238281 197.035156 199.222656 194.375 203.316406 192.875 C 203.730469 188.1875 207.652344 184.519531 212.457031 184.519531 Z M 212.457031 184.519531 " fill-opacity="1" fill-rule="evenodd"/></g><g clip-path="url(#239fc98a6a)"><path fill="#001d61" d="M 143.496094 104.253906 C 147.183594 100.054688 152.59375 97.375 158.574219 97.375 C 169.621094 97.375 178.632812 106.402344 178.632812 117.417969 L 178.632812 257.21875 C 178.632812 268.238281 169.621094 277.261719 158.574219 277.261719 C 149.308594 277.261719 141.457031 270.875 139.183594 262.277344 C 140.941406 258.761719 143.304688 254.988281 146.324219 251.597656 C 146.476562 251.46875 146.605469 251.34375 146.714844 251.191406 C 149.652344 248.019531 153.214844 245.214844 157.503906 243.347656 C 158.664062 242.855469 159.195312 241.503906 158.707031 240.347656 C 158.191406 239.1875 156.863281 238.652344 155.703125 239.167969 C 151.945312 240.777344 148.710938 243.007812 145.921875 245.578125 C 142.296875 230.679688 152.121094 219.660156 160.273438 210.503906 C 163.382812 207.03125 166.277344 203.792969 168.273438 200.554688 C 176.597656 187.070312 164.261719 170.496094 164.21875 170.453125 C 163.488281 169.425781 162.054688 169.210938 161.023438 169.964844 C 160.015625 170.714844 159.804688 172.128906 160.53125 173.15625 C 160.574219 173.199219 171.085938 187.328125 164.390625 198.152344 C 162.632812 201.003906 159.847656 204.113281 156.863281 207.457031 C 147.464844 217.984375 136.058594 230.78125 142.253906 249.371094 C 139.484375 252.605469 137.277344 256.125 135.542969 259.445312 C 134.082031 259.742188 132.5625 259.894531 131.015625 259.894531 C 118.25 259.894531 107.914062 249.5625 107.914062 236.804688 C 107.914062 234.683594 108.195312 232.644531 108.726562 230.695312 C 111.988281 228.464844 115.804688 226.234375 120.074219 224.433594 C 120.265625 224.371094 120.460938 224.304688 120.632812 224.199219 C 125.394531 222.269531 130.667969 220.878906 136.332031 220.621094 C 137.601562 220.554688 138.5625 219.484375 138.523438 218.242188 C 138.457031 216.972656 137.410156 215.988281 136.140625 216.054688 C 131.296875 216.269531 126.683594 217.253906 122.4375 218.6875 C 124.023438 212.601562 129.300781 200.9375 146.566406 198.75 C 147.8125 198.601562 148.691406 197.464844 148.539062 196.199219 C 148.367188 194.957031 147.230469 194.078125 145.988281 194.226562 C 122.585938 197.1875 118.167969 215.429688 117.351562 220.660156 C 112.417969 222.847656 108.0625 225.523438 104.480469 228.140625 C 94.4375 222.636719 87.660156 211.984375 87.660156 199.742188 C 87.660156 193.332031 89.503906 187.347656 92.722656 182.3125 C 95.1875 181.15625 98.449219 180.019531 102.246094 179.699219 C 101.773438 184.609375 101.988281 194.835938 110.011719 202.855469 C 110.890625 203.734375 112.347656 203.734375 113.246094 202.855469 C 114.125 201.953125 114.125 200.496094 113.246094 199.617188 C 106.230469 192.605469 106.382812 183.542969 106.8125 179.703125 C 108.871094 179.878906 111.035156 180.324219 113.265625 181.121094 C 114.445312 181.550781 115.753906 180.90625 116.183594 179.726562 C 116.59375 178.527344 115.96875 177.21875 114.789062 176.808594 C 111.339844 175.589844 108.054688 175.074219 105.011719 175.03125 C 104.925781 175.03125 104.859375 175.03125 104.796875 175.03125 C 100.847656 175.007812 97.308594 175.757812 94.351562 176.789062 C 92.59375 173.398438 91.605469 169.566406 91.605469 165.488281 C 91.605469 152.5625 101.578125 141.96875 114.257812 140.964844 C 118.828125 145.507812 125.96875 149.605469 136.652344 148.492188 C 137.894531 148.359375 138.816406 147.222656 138.691406 145.980469 C 138.5625 144.714844 137.425781 143.816406 136.179688 143.941406 C 126.464844 144.953125 120.222656 140.835938 116.464844 136.675781 C 116.144531 135.042969 115.949219 133.375 115.949219 131.65625 C 115.949219 118.558594 126.183594 107.863281 139.09375 107.085938 C 139.5 111.332031 140.296875 115.148438 141.324219 118.664062 C 137.378906 119.582031 130.300781 122.394531 125.472656 130.949219 C 124.851562 132.0625 125.238281 133.457031 126.351562 134.054688 C 127.449219 134.679688 128.839844 134.289062 129.464844 133.199219 C 133.710938 125.675781 139.847656 123.574219 142.742188 122.996094 C 144.265625 127.132812 146.027344 130.863281 147.695312 134.378906 C 148.832031 136.757812 149.925781 139.074219 150.828125 141.242188 C 153.359375 147.417969 154.882812 153.097656 153.875 158.261719 C 148.875 158.195312 135.320312 158.925781 127.125 167.671875 C 124.679688 167.199219 118.632812 165.144531 113.910156 155.753906 C 113.355469 154.617188 111.980469 154.167969 110.867188 154.722656 C 109.730469 155.304688 109.28125 156.652344 109.835938 157.789062 C 114.363281 166.835938 120.328125 170.265625 124.210938 171.550781 C 121.636719 175.882812 120.199219 181.585938 120.691406 189.128906 C 120.777344 190.398438 121.871094 191.359375 123.140625 191.277344 C 124.40625 191.191406 125.347656 190.097656 125.261719 188.832031 C 123.71875 165.828125 144.160156 163.039062 152.269531 162.847656 C 149.972656 167.160156 145.425781 171.273438 137.683594 175.324219 C 136.570312 175.90625 136.140625 177.273438 136.722656 178.390625 C 137.300781 179.503906 138.671875 179.957031 139.808594 179.355469 C 150.402344 173.824219 155.769531 167.886719 157.808594 161.433594 C 157.828125 161.347656 157.871094 161.242188 157.890625 161.132812 C 157.933594 161.003906 157.957031 160.875 158 160.746094 C 159.863281 154.011719 158.148438 147.023438 155.0625 139.5 C 154.097656 137.121094 152.980469 134.824219 151.84375 132.425781 C 148.214844 124.792969 144.140625 116.195312 143.496094 104.253906 Z M 143.496094 104.253906 " fill-opacity="1" fill-rule="evenodd"/></g></svg>