<svg version="1.2" xmlns="http://www.w3.org/2000/svg" viewBox="0 0 195 183" width="195" height="183"><defs><clipPath clipPathUnits="userSpaceOnUse" id="cp1"><path d="m103 1.32h91.66v180h-91.66z"/></clipPath><clipPath clipPathUnits="userSpaceOnUse" id="cp2"><path d="m2.68 1.32h91.32v180h-91.32z"/></clipPath></defs><style>.a{fill:#009986}.b{fill:#001d61}</style><g clip-path="url(#cp1)"><path fill-rule="evenodd" class="a" d="m166.3 35.7c0 3.2-0.6 6.4-1.8 9.2q0.8 0 1.6 0c13.6 0 24.6 11 24.6 24.6 0 4.7-1.5 9.3-3.6 13.4 4.7 5.6 7.6 12.9 7.6 20.8 0 14.6-8.7 25.1-21.2 30.7 0.6 2 0.9 4.2 0.9 6.4 0 12.8-10.3 23.1-23.1 23.1q-2.3 0-4.4-0.4c0 0-1.3-0.1-3.2-0.6-0.9 10.3-9.5 18.4-20 18.4-11 0-20-9.1-20-20.1q0-69.9 0-139.8c0-11 9-20 20-20 7.3 0 14.3 3.9 17.8 9.6 13.8-0.4 24.8 10.6 24.8 24.7zm-38.8 52.8c5 0 9.1 4.1 9.1 9.2 0 5.1-4.1 9.2-9.1 9.2-3.4 0-6.3-1.8-7.9-4.4-9.8 4.7-10.5 21.4-10.5 24.9v33.8c0 8 6.6 14.6 14.6 14.6 7.7 0 14.1-5.9 14.6-13.6l0.1-1.3c-3.8-2-8-5.4-10.9-11.6-5.1 0-9.2-4.1-9.2-9.2 0-5.1 4.1-9.2 9.2-9.2 5.1 0 9.2 4.1 9.2 9.2 0 2.6-1.1 4.9-2.8 6.6 8.7 18.7 35.1 14 35.1-5.9q0-2.3-0.6-4.5c-4.1 1.3-7.3 1.7-13.1 1.5-1.6 2.8-4.6 4.7-8 4.7-5.1 0-9.2-4.1-9.2-9.2 0-5 4.1-9.1 9.2-9.1 4.4 0 8.1 3.1 9 7.3 9.8 0.4 19.2-4.3 19.7-4.5 8.1-4.8 13.2-13.6 13.2-23.3 0-5.8-1.8-11.3-5.2-15.9-3 3.9-7.5 8.1-14.1 10.1-0.9 4-4.5 7-8.9 7-5 0-9.2-4.1-9.2-9.1 0-5.1 4.2-9.2 9.2-9.2 3.3 0 6.2 1.7 7.8 4.3 10.6-4.2 15.1-14.4 15.3-14.8 0.8-2.1 1.2-4.4 1.2-6.6 0-10.6-8.6-19.2-19.2-19.2q-0.6 0-1.2 0l-1.4 0.1c-2.4 5.2-8.4 12.6-20.2 18.2q0.1 0.6 0.1 1.2c0 5.1-4.1 9.2-9.1 9.2-5.1 0-9.2-4.1-9.2-9.2 0-5.1 4.1-9.2 9.2-9.2 2.2 0 4.3 0.8 5.9 2.2 10.1-4 20.7-15.7 20.7-27.2 0-10.3-8.2-18.8-18.5-19.1-0.1 4.2-2 11.7-6.2 16.5 0.7 1.3 1.1 2.8 1.1 4.4 0 5.1-4.1 9.2-9.2 9.2-5.1 0-9.2-4.1-9.2-9.2 0-5.1 4.1-9.2 9.2-9.2q1.3 0 2.5 0.4c4.6-5.9 7.9-14 2.1-18.6-2.5-2-5.7-3.2-9-3.2-8-0.1-14.6 6.6-14.6 14.6v82.8c2.1-3.2 5.1-5.8 9.2-7.3 0.4-4.7 4.4-8.4 9.2-8.4z"/></g><g clip-path="url(#cp2)"><path fill-rule="evenodd" class="b" d="m58.5 8.3c3.7-4.2 9.1-6.9 15.1-6.9 11 0 20 9 20 20v139.8c0 11-9 20.1-20 20.1-9.3 0-17.1-6.4-19.4-15 1.7-3.5 4.1-7.3 7.1-10.7q0.3-0.2 0.4-0.4c3-3.2 6.5-6 10.8-7.9 1.2-0.4 1.7-1.8 1.2-3-0.5-1.1-1.8-1.6-3-1.1-3.8 1.6-7 3.8-9.8 6.4-3.6-14.9 6.2-25.9 14.4-35.1 3.1-3.5 6-6.7 8-9.9 8.3-13.5-4-30.1-4.1-30.1-0.7-1.1-2.1-1.3-3.2-0.5-1 0.7-1.2 2.1-0.5 3.2 0.1 0 10.6 14.1 3.9 25-1.8 2.8-4.6 5.9-7.5 9.3-9.4 10.5-20.8 23.3-14.6 41.9-2.8 3.2-5 6.7-6.8 10q-2.2 0.5-4.5 0.5c-12.8 0-23.1-10.3-23.1-23.1q0-3.2 0.8-6.1c3.3-2.2 7.1-4.5 11.4-6.3q0.3-0.1 0.5-0.2c4.8-1.9 10.1-3.3 15.7-3.6 1.3 0 2.3-1.1 2.2-2.4 0-1.2-1.1-2.2-2.4-2.1-4.8 0.2-9.4 1.2-13.7 2.6 1.6-6.1 6.9-17.8 24.2-20 1.2-0.1 2.1-1.2 1.9-2.5-0.1-1.2-1.3-2.1-2.5-2-23.4 3-27.8 21.2-28.6 26.5-5 2.1-9.3 4.8-12.9 7.4-10.1-5.5-16.8-16.1-16.8-28.4 0-6.4 1.8-12.4 5-17.4 2.5-1.1 5.7-2.3 9.5-2.6-0.4 4.9-0.2 15.1 7.8 23.2 0.9 0.8 2.3 0.8 3.2 0 0.9-0.9 0.9-2.4 0-3.3-7-7-6.8-16.1-6.4-19.9 2.1 0.2 4.2 0.6 6.5 1.4 1.1 0.5 2.5-0.2 2.9-1.4 0.4-1.2-0.2-2.5-1.4-2.9-3.5-1.2-6.7-1.7-9.8-1.8q-0.1 0-0.2 0c-4 0-7.5 0.8-10.4 1.8-1.8-3.4-2.8-7.2-2.8-11.3 0-12.9 10-23.5 22.7-24.5 4.5 4.5 11.7 8.6 22.4 7.5 1.2-0.1 2.1-1.3 2-2.5-0.1-1.3-1.3-2.2-2.5-2.1-9.7 1.1-16-3.1-19.7-7.2-0.4-1.7-0.6-3.3-0.6-5 0-13.1 10.3-23.8 23.2-24.6 0.4 4.2 1.2 8 2.2 11.6-3.9 0.9-11 3.7-15.8 12.2-0.6 1.2-0.3 2.6 0.9 3.2 1 0.6 2.4 0.2 3.1-0.9 4.2-7.5 10.3-9.6 13.2-10.2 1.6 4.1 3.3 7.9 5 11.4 1.1 2.4 2.2 4.7 3.1 6.8 2.6 6.2 4.1 11.9 3.1 17.1-5-0.1-18.6 0.6-26.8 9.4-2.4-0.5-8.5-2.6-13.2-11.9-0.5-1.2-1.9-1.6-3-1.1-1.2 0.6-1.6 2-1.1 3.1 4.6 9 10.5 12.5 14.4 13.8-2.6 4.3-4 10-3.5 17.5 0.1 1.3 1.2 2.3 2.4 2.2 1.3-0.1 2.2-1.2 2.2-2.5-1.6-23 18.9-25.8 27-26-2.3 4.4-6.9 8.5-14.6 12.5-1.1 0.6-1.6 2-1 3.1 0.6 1.1 2 1.6 3.1 1 10.6-5.6 16-11.5 18-18q0-0.1 0.1-0.3 0-0.2 0.1-0.4c1.9-6.7 0.1-13.7-2.9-21.2-1-2.4-2.1-4.7-3.3-7.1-3.6-7.6-7.7-16.2-8.3-28.1z"/></g></svg>