<svg version="1.2" xmlns="http://www.w3.org/2000/svg" viewBox="0 0 177 215" width="177" height="215"><defs><clipPath clipPathUnits="userSpaceOnUse" id="cp1"><path d="m57 120h96v93.09h-96z"/></clipPath><clipPath clipPathUnits="userSpaceOnUse" id="cp2"><path d="m66 164h58v49.09h-58z"/></clipPath><clipPath clipPathUnits="userSpaceOnUse" id="cp3"><path d="m2.03 41h20.97v21h-20.97z"/></clipPath><clipPath clipPathUnits="userSpaceOnUse" id="cp4"><path d="m44 3.84h13v13.16h-13z"/></clipPath></defs><style>.a{opacity:.8;fill:#f9ed32}.b{opacity:.8;fill:#662d91}.c{opacity:.8;fill:#92278f}.d{opacity:.8;fill:#007fc6}.e{opacity:.8;fill:#01a6e6}.f{opacity:.8;fill:#2063b2}.g{opacity:.8;fill:#12bcbc}.h{opacity:.8;fill:#00b9f1}.i{opacity:.8;fill:#8dc63f}.j{opacity:.8;fill:#ffd900}.k{opacity:.8;fill:#009444}.l{opacity:.8;fill:#56ba48}.m{opacity:.8;fill:#fbad17}.n{opacity:.8;fill:#f15c22}.o{opacity:.8;fill:#ec008b}</style><path fill-rule="evenodd" class="a" d="m93.4 32.7q1.1 0 2.2-0.2 1.1-0.2 2.1-0.7 1.1-0.4 2-1 0.9-0.6 1.7-1.4 0.8-0.8 1.4-1.7 0.7-1 1.1-2 0.4-1 0.6-2.1 0.3-1.1 0.3-2.2 0-1.2-0.3-2.3-0.2-1.1-0.6-2.1-0.4-1-1-2-0.7-0.9-1.5-1.7-0.8-0.8-1.7-1.4-0.9-0.6-2-1-1-0.5-2.1-0.7-1.1-0.2-2.2-0.2-1.1 0-2.2 0.2-1.1 0.2-2.2 0.6-1 0.5-1.9 1.1-1 0.6-1.8 1.4-0.8 0.8-1.4 1.7-0.6 0.9-1 2-0.5 1-0.7 2.1-0.2 1.1-0.2 2.2 0 1.1 0.2 2.2 0.2 1.1 0.7 2.2 0.4 1 1 1.9 0.6 1 1.4 1.8 0.8 0.7 1.8 1.4 0.9 0.6 1.9 1 1.1 0.5 2.2 0.7 1.1 0.2 2.2 0.2z"/><path fill-rule="evenodd" class="b" d="m148.5 41.4q4.7 5.4 7.7 11.8 3 6.4 4.3 13.4c2.3 13.5-1.3 25.9 1.2 34.3q0.9 2.8 2.3 5.4-0.8 0.5-1.7 0.9-0.9 0.5-1.8 0.9-1 0.4-1.9 0.7-0.9 0.4-1.9 0.7-0.9 0.3-1.9 0.5-1 0.3-2 0.4-1 0.2-2 0.3-0.9 0.2-1.9 0.2-1 0.1-2 0.1-1 0-2 0-1-0.1-2-0.2-1-0.1-2-0.2-1-0.2-2-0.4-1-0.2-1.9-0.5-1-0.3-1.9-0.6-1-0.3-1.9-0.7-0.9-0.4-1.8-0.8-0.9-0.4-1.8-0.9-0.9-0.5-1.7-1-0.9-0.6-1.7-1.2-0.8-0.5-1.6-1.2-0.8-0.6-1.5-1.3-0.8-0.6-1.5-1.3-0.7-0.7-1.3-1.5-0.7-0.7-1.3-1.5-0.6-0.8-1.2-1.6-0.6-0.9-1.1-1.7-0.5-0.9-1-1.7-0.5-0.9-0.9-1.8-0.4-0.9-0.8-1.9-0.4-0.9-0.7-1.8-0.3-1-0.5-1.9-0.3-1-0.5-2-0.2-1-0.4-1.9-0.1-1-0.2-2-0.1-1-0.1-2-0.1-1 0-2 0-1 0.1-2 0-1 0.2-2 0.1-1 0.3-2 0.2-0.9 0.5-1.9 0.2-1 0.5-1.9 0.3-1 0.7-1.9 0.3-0.9 0.8-1.8 0.4-1 0.8-1.8 0.5-0.9 1-1.8 0.5-0.8 1.1-1.7 0.6-0.8 1.2-1.6 0.6-0.8 1.2-1.5 0.7-0.8 1.4-1.5 0.7-0.7 1.4-1.4 0.7-0.7 1.5-1.3 0.8-0.6 1.6-1.2 0.8-0.6 1.7-1.2 0.8-0.5 1.7-1 0.8-0.5 1.7-0.9 0.9-0.5 1.9-0.9 0.9-0.3 1.8-0.7 1-0.3 1.9-0.6 1-0.3 2-0.5 0.9-0.2 1.9-0.4 1-0.2 2-0.3 1-0.1 2-0.2 1 0 2 0 1 0 2 0z"/><path fill-rule="evenodd" class="c" d="m161.1 72.5c0.8 11.2-1.5 21.3 0.6 28.4 3.6 12.3 19.6 23.3 12.1 29.6-2.3 1.9-6.4 2-8.8 3.9-3.8 2.9-1.2 6.1-0.9 8.4 0.2 1.1-0.8 2.9-4.1 5 2.5 1.8 2.3 3.4 1.4 4.8q-1.8 1.2-3.7 2.3-1.9 1.1-3.9 2-2 0.9-4.1 1.6-2.1 0.7-4.2 1.2-2.2 0.5-4.3 0.8-2.2 0.4-4.4 0.5-2.2 0.1-4.4 0.1-2.2-0.1-4.3-0.4-2.2-0.2-4.4-0.7-2.1-0.5-4.2-1.1-2.1-0.7-4.1-1.5-2.1-0.8-4-1.9-2-1-3.8-2.2-1.8-1.2-3.6-2.5-1.7-1.4-3.3-2.8-1.6-1.5-3.1-3.2-1.4-1.6-2.7-3.4-1.3-1.7-2.5-3.6-1.1-1.9-2.1-3.8-0.9-2-1.7-4.1-0.8-2-1.4-4.1-0.6-2.1-1-4.3-0.4-2.1-0.6-4.3-0.2-2.2-0.2-4.4 0-2.2 0.2-4.3 0.2-2.2 0.6-4.4 0.3-2.1 0.9-4.2 0.6-2.1 1.4-4.2 0.7-2 1.7-4 0.9-2 2.1-3.9 1.1-1.8 2.4-3.6 1.3-1.8 2.7-3.4 1.5-1.7 3.1-3.2 1.6-1.5 3.3-2.9 1.7-1.3 3.5-2.5 1.9-1.2 3.8-2.2 1.9-1.1 4-1.9 2-0.9 4.1-1.5 2.1-0.7 4.2-1.2 2.1-0.5 4.3-0.7 2.2-0.3 4.4-0.4 2.2-0.1 4.4 0 2.2 0.1 4.3 0.5 2.2 0.3 4.4 0.8 2.1 0.5 4.2 1.2 2.1 0.7 4.1 1.5 2 0.9 3.9 2 1.9 1 3.7 2.3z"/><g clip-path="url(#cp1)"><path fill-rule="evenodd" class="d" d="m150.7 179.5c-18.4 7.5-43.1-17.6-46.4 33.6q-18-11.8-38.1-19.4-0.9-1.2-1.6-2.4-0.8-1.3-1.4-2.6-0.7-1.3-1.3-2.7-0.6-1.3-1.1-2.7-0.5-1.4-0.9-2.8-0.4-1.4-0.7-2.8-0.4-1.5-0.6-2.9-0.2-1.5-0.4-2.9-0.1-1.5-0.2-3 0-1.4 0-2.9 0.1-1.5 0.2-3 0.1-1.4 0.3-2.9 0.3-1.4 0.6-2.9 0.3-1.4 0.7-2.8 0.4-1.4 0.9-2.8 0.5-1.4 1.1-2.8 0.6-1.3 1.2-2.6 0.7-1.3 1.4-2.6 0.8-1.3 1.6-2.5 0.8-1.2 1.7-2.4 0.9-1.2 1.9-2.3 0.9-1.1 2-2.1 1-1.1 2.1-2.1 1.1-0.9 2.3-1.8 1.1-1 2.3-1.8 1.3-0.8 2.5-1.6 1.3-0.7 2.6-1.4 1.3-0.7 2.6-1.3 1.4-0.6 2.8-1.1 1.4-0.5 2.8-0.9 1.4-0.5 2.8-0.8 1.5-0.3 2.9-0.6 1.5-0.2 2.9-0.4 1.5-0.1 3-0.2 1.5-0.1 2.9 0 1.5 0 3 0.1 1.4 0.1 2.9 0.4 1.5 0.2 2.9 0.5 1.5 0.3 2.9 0.7 1.4 0.4 2.8 0.8 1.4 0.5 2.7 1.1 1.4 0.6 2.7 1.2 1.4 0.7 2.6 1.4 1.3 0.7 2.5 1.5 1.3 0.8 2.5 1.7 1.1 0.9 2.3 1.9 1.1 0.9 2.1 1.9 1.1 1.1 2.1 2.2 1 1 1.9 2.2 0.9 1.1 1.8 2.3 0.8 1.2 1.6 2.5 0.8 1.3 1.5 2.6 0.6 1.3 1.3 2.6 0.6 1.3 1.1 2.7 0.5 1.4 0.9 2.8 0.5 1.4 0.8 2.8 0.4 1.5 0.6 2.9 0.3 1.4 0.5 2.9 0.1 1.5 0.2 2.9 0.1 1.5 0.1 3-0.1 1.5-0.2 2.9-0.1 1.5-0.3 2.9-0.2 1.5-0.5 2.9-0.3 1.5-0.7 2.9z"/></g><g clip-path="url(#cp2)"><path fill-rule="evenodd" class="e" d="m123.7 179.8c-9.8 0.4-17.6 6-19.4 33.3q-17.9-11.7-37.9-19.3 0-2.5 0.5-4.9 0.5-2.5 1.3-4.8 0.9-2.3 2.1-4.5 1.2-2.2 2.8-4.1 1.6-2 3.4-3.6 1.9-1.7 4-3 2.1-1.4 4.4-2.4 2.3-0.9 4.7-1.5 2.5-0.6 5-0.8 2.4-0.2 4.9 0 2.5 0.2 4.9 0.8 2.5 0.6 4.8 1.6 2.3 1 4.3 2.4 2.1 1.3 4 3 1.8 1.7 3.4 3.6 1.5 2 2.8 4.2z"/></g><path fill-rule="evenodd" class="f" d="m168.2 132.8q-1.7 0.5-3.2 1.6c-3.8 2.9-1.2 6.1-0.9 8.4 0.2 1.1-0.8 2.9-4.1 5 3.8 2.8 1.3 4.9-0.2 7-7.1 5.1 2.7 16.1-9 24.7-11.8 4.8-26.1-3.7-35.8 2.8q-0.3-1.3-0.4-2.6-0.2-1.4-0.2-2.7-0.1-1.3-0.1-2.7 0-1.3 0.1-2.7 0.1-1.3 0.3-2.7 0.2-1.3 0.5-2.6 0.3-1.3 0.6-2.6 0.4-1.3 0.8-2.6 0.4-1.3 0.9-2.5 0.5-1.3 1.1-2.5 0.6-1.2 1.3-2.4 0.6-1.1 1.3-2.3 0.8-1.1 1.6-2.2 0.8-1.1 1.6-2.1 0.9-1 1.8-2 1-1 1.9-1.9 1-0.9 2.1-1.8 1-0.8 2.1-1.6 1.1-0.8 2.2-1.5 1.2-0.7 2.4-1.4 1.2-0.6 2.4-1.2 1.2-0.6 2.4-1.1 1.3-0.5 2.6-0.9 1.3-0.4 2.6-0.8 1.3-0.3 2.6-0.5 1.3-0.3 2.7-0.5 1.3-0.2 2.6-0.2 1.4-0.1 2.7-0.1 1.4-0.1 2.7 0 1.4 0.1 2.7 0.3 1.4 0.1 2.7 0.3 1.3 0.3 2.6 0.6z"/><path fill-rule="evenodd" class="g" d="m31.1 133.4q0.8 0 1.6-0.1 0.8-0.1 1.7-0.2 0.8-0.2 1.6-0.4 0.8-0.3 1.5-0.6 0.8-0.3 1.5-0.7 0.7-0.4 1.4-0.9 0.7-0.4 1.4-0.9 0.6-0.6 1.2-1.1 0.6-0.6 1.1-1.3 0.5-0.6 1-1.3 0.5-0.7 0.8-1.4 0.4-0.7 0.8-1.5 0.3-0.8 0.5-1.6 0.3-0.7 0.4-1.6 0.2-0.8 0.3-1.6 0-0.8 0-1.6 0-0.9 0-1.7-0.1-0.8-0.3-1.6-0.1-0.8-0.4-1.6-0.2-0.8-0.5-1.6-0.4-0.7-0.8-1.5-0.3-0.7-0.8-1.4-0.5-0.7-1-1.3-0.5-0.6-1.1-1.2-0.6-0.6-1.2-1.1-0.7-0.6-1.4-1-0.6-0.5-1.4-0.9-0.7-0.4-1.5-0.7-0.7-0.3-1.5-0.5-0.8-0.3-1.6-0.4-0.9-0.2-1.7-0.3-0.8-0.1-1.6-0.1-0.9 0-1.7 0.1-0.8 0.1-1.6 0.3-0.8 0.1-1.6 0.4-0.8 0.2-1.6 0.5-0.8 0.3-1.5 0.7-0.7 0.4-1.4 0.9-0.7 0.4-1.3 1-0.7 0.5-1.3 1.1-0.5 0.6-1.1 1.2-0.5 0.6-1 1.3-0.4 0.7-0.8 1.4-0.4 0.8-0.7 1.5-0.3 0.8-0.6 1.6-0.2 0.8-0.4 1.6-0.1 0.8-0.2 1.6-0.1 0.8-0.1 1.7 0 0.8 0.1 1.6 0.1 0.8 0.2 1.6 0.2 0.9 0.4 1.6 0.3 0.8 0.6 1.6 0.3 0.8 0.7 1.5 0.4 0.7 0.9 1.4 0.4 0.7 0.9 1.3 0.6 0.7 1.2 1.2 0.5 0.6 1.2 1.1 0.6 0.6 1.3 1 0.7 0.5 1.4 0.9 0.8 0.4 1.5 0.7 0.8 0.3 1.6 0.5 0.8 0.3 1.6 0.4 0.8 0.2 1.6 0.3 0.8 0.1 1.7 0.1z"/><path fill-rule="evenodd" class="h" d="m66.4 156.8q1.5 0 3-0.3 1.5-0.3 2.9-0.9 1.4-0.5 2.6-1.4 1.3-0.8 2.4-1.9 1.1-1 1.9-2.3 0.8-1.3 1.4-2.7 0.6-1.4 0.9-2.8 0.3-1.5 0.3-3 0-1.5-0.3-3-0.3-1.5-0.8-2.9-0.6-1.4-1.5-2.7-0.8-1.2-1.9-2.3-1-1.1-2.3-1.9-1.3-0.8-2.7-1.4-1.4-0.6-2.9-0.9-1.4-0.3-3-0.3-1.5 0-3 0.3-1.4 0.3-2.8 0.9-1.4 0.5-2.7 1.4-1.3 0.8-2.3 1.9-1.1 1.1-2 2.3-0.8 1.3-1.4 2.7-0.6 1.4-0.9 2.8-0.3 1.5-0.3 3 0.1 1.5 0.3 3 0.3 1.5 0.9 2.9 0.6 1.4 1.4 2.6 0.9 1.3 1.9 2.4 1.1 1 2.4 1.9 1.2 0.8 2.6 1.4 1.4 0.6 2.9 0.9 1.5 0.3 3 0.3z"/><path fill-rule="evenodd" class="i" d="m28.6 92.5q1.2 0 2.3-0.3 1.2-0.2 2.3-0.6 1-0.5 2-1.1 1-0.7 1.8-1.5 0.8-0.8 1.5-1.8 0.6-1 1.1-2 0.4-1.1 0.6-2.2 0.3-1.2 0.3-2.3 0-1.2-0.3-2.3-0.2-1.2-0.6-2.2-0.5-1.1-1.1-2.1-0.7-0.9-1.5-1.8-0.8-0.8-1.8-1.4-1-0.7-2-1.1-1.1-0.5-2.3-0.7-1.1-0.2-2.3-0.2-1.1 0-2.3 0.2-1.1 0.2-2.2 0.7-1.1 0.4-2 1.1-1 0.6-1.8 1.4-0.8 0.9-1.5 1.8-0.6 1-1.1 2.1-0.4 1-0.7 2.2-0.2 1.1-0.2 2.3 0 1.1 0.3 2.3 0.2 1.1 0.6 2.2 0.5 1.1 1.1 2 0.7 1 1.5 1.8 0.8 0.8 1.8 1.5 0.9 0.6 2 1.1 1.1 0.4 2.2 0.6 1.2 0.2 2.3 0.3z"/><g clip-path="url(#cp3)"><path class="j" d="m22.7 51.4q0 1-0.2 2-0.1 1-0.5 1.9-0.4 0.9-1 1.8-0.5 0.8-1.3 1.5-0.7 0.7-1.5 1.3-0.8 0.5-1.8 0.9-0.9 0.4-1.9 0.6-1 0.2-2 0.2-1 0-2-0.2-1-0.2-1.9-0.6-0.9-0.4-1.8-0.9-0.8-0.6-1.5-1.3-0.7-0.7-1.3-1.5-0.6-0.9-0.9-1.8-0.4-0.9-0.6-1.9-0.2-1-0.2-2 0-1 0.2-2 0.2-1 0.6-1.9 0.3-0.9 0.9-1.8 0.6-0.8 1.3-1.5 0.7-0.7 1.5-1.3 0.9-0.5 1.8-0.9 0.9-0.4 1.9-0.6 1-0.2 2-0.2 1 0 2 0.2 1 0.2 1.9 0.6 1 0.4 1.8 0.9 0.8 0.6 1.5 1.3 0.8 0.7 1.3 1.5 0.6 0.9 1 1.8 0.4 0.9 0.5 1.9 0.2 1 0.2 2z"/></g><path fill-rule="evenodd" class="k" d="m34.1 32.7q1 0 1.9-0.2 0.9-0.2 1.8-0.5 0.9-0.4 1.6-0.9 0.8-0.5 1.5-1.2 0.7-0.7 1.2-1.4 0.5-0.8 0.9-1.7 0.3-0.8 0.5-1.8 0.2-0.9 0.2-1.8 0-1-0.2-1.9-0.2-0.9-0.5-1.8-0.4-0.8-0.9-1.6-0.5-0.8-1.2-1.5-0.7-0.6-1.5-1.1-0.7-0.6-1.6-0.9-0.9-0.4-1.8-0.6-0.9-0.2-1.9-0.2-0.9 0-1.8 0.2-0.9 0.2-1.8 0.6-0.9 0.3-1.7 0.8-0.8 0.6-1.4 1.2-0.7 0.7-1.2 1.5-0.5 0.8-0.9 1.6-0.3 0.9-0.5 1.8-0.2 0.9-0.2 1.9 0 0.9 0.2 1.8 0.2 0.9 0.5 1.8 0.4 0.9 0.9 1.7 0.5 0.7 1.2 1.4 0.6 0.7 1.4 1.2 0.8 0.5 1.7 0.9 0.8 0.3 1.8 0.5 0.9 0.2 1.8 0.2z"/><path fill-rule="evenodd" class="l" d="m37.4 56.4q0.6 0 1.2-0.1 0.6-0.1 1.2-0.3 0.6-0.3 1.1-0.6 0.5-0.4 0.9-0.8 0.5-0.4 0.8-1 0.4-0.5 0.6-1 0.2-0.6 0.4-1.2 0.1-0.6 0.1-1.3 0-0.6-0.1-1.2-0.2-0.6-0.4-1.2-0.2-0.5-0.6-1.1-0.3-0.5-0.8-0.9-0.4-0.4-0.9-0.8-0.5-0.3-1.1-0.6-0.6-0.2-1.2-0.3-0.6-0.1-1.2-0.1-0.6 0-1.3 0.1-0.6 0.1-1.1 0.3-0.6 0.3-1.1 0.6-0.5 0.4-1 0.8-0.4 0.4-0.8 0.9-0.3 0.6-0.6 1.1-0.2 0.6-0.3 1.2-0.1 0.6-0.1 1.2 0 0.7 0.1 1.3 0.1 0.6 0.3 1.2 0.3 0.5 0.6 1 0.4 0.6 0.8 1 0.5 0.4 1 0.8 0.5 0.3 1.1 0.6 0.5 0.2 1.1 0.3 0.7 0.1 1.3 0.1z"/><g clip-path="url(#cp4)"><path fill-rule="evenodd" class="m" d="m50.5 16.4q0.7 0 1.3-0.1 0.6-0.1 1.2-0.4 0.5-0.2 1-0.5 0.6-0.4 1-0.8 0.4-0.5 0.8-1 0.3-0.5 0.6-1.1 0.2-0.5 0.3-1.1 0.1-0.6 0.1-1.3 0-0.6-0.1-1.2-0.1-0.6-0.3-1.2-0.3-0.5-0.6-1.1-0.4-0.5-0.8-0.9-0.4-0.5-1-0.8-0.5-0.3-1-0.6-0.6-0.2-1.2-0.3-0.6-0.2-1.3-0.2-0.6 0-1.2 0.2-0.6 0.1-1.2 0.3-0.6 0.3-1.1 0.6-0.5 0.3-0.9 0.8-0.5 0.4-0.8 0.9-0.4 0.6-0.6 1.1-0.2 0.6-0.4 1.2-0.1 0.6-0.1 1.2 0 0.7 0.2 1.3 0.1 0.6 0.3 1.1 0.2 0.6 0.6 1.1 0.3 0.5 0.8 1 0.4 0.4 0.9 0.8 0.6 0.3 1.1 0.5 0.6 0.3 1.2 0.4 0.6 0.1 1.2 0.1z"/></g><path fill-rule="evenodd" class="n" d="m11.8 30.5q0.4 0 0.9-0.1 0.5-0.1 0.9-0.3 0.4-0.2 0.8-0.5 0.4-0.2 0.7-0.6 0.4-0.3 0.6-0.7 0.3-0.4 0.5-0.8 0.1-0.4 0.2-0.9 0.1-0.5 0.1-0.9 0-0.5-0.1-1-0.1-0.4-0.2-0.8-0.2-0.5-0.5-0.9-0.2-0.4-0.6-0.7-0.3-0.3-0.7-0.6-0.4-0.2-0.8-0.4-0.5-0.2-0.9-0.3-0.5-0.1-1-0.1-0.4 0-0.9 0.1-0.4 0.1-0.9 0.3-0.4 0.2-0.8 0.4-0.4 0.3-0.7 0.6-0.4 0.4-0.6 0.7-0.3 0.4-0.5 0.9-0.1 0.4-0.2 0.9-0.1 0.4-0.1 0.9 0 0.5 0.1 0.9 0.1 0.5 0.2 0.9 0.2 0.4 0.5 0.8 0.3 0.4 0.6 0.8 0.3 0.3 0.7 0.6 0.4 0.2 0.8 0.4 0.5 0.2 0.9 0.3 0.5 0.1 1 0.1z"/><path class="m" d="m125.3 79q0 2-0.2 3.9-0.2 2-0.5 3.9-0.4 1.9-1 3.8-0.6 1.9-1.3 3.7-0.8 1.8-1.7 3.5-0.9 1.7-2 3.4-1.1 1.6-2.3 3.1-1.3 1.5-2.7 2.9-1.4 1.4-2.9 2.6-1.5 1.3-3.1 2.3-1.6 1.1-3.4 2-1.7 1-3.5 1.7-1.8 0.8-3.7 1.3-1.9 0.6-3.8 1-1.9 0.4-3.9 0.6-1.9 0.1-3.9 0.1-2 0-3.9-0.1-2-0.2-3.9-0.6-1.9-0.4-3.8-1-1.9-0.5-3.7-1.3-1.8-0.7-3.5-1.7-1.7-0.9-3.4-2-1.6-1-3.1-2.3-1.5-1.2-2.9-2.6-1.4-1.4-2.6-2.9-1.3-1.5-2.4-3.1-1.1-1.7-2-3.4-0.9-1.7-1.7-3.5-0.7-1.8-1.3-3.7-0.6-1.9-0.9-3.8-0.4-1.9-0.6-3.9-0.2-1.9-0.2-3.9 0-1.9 0.2-3.9 0.2-1.9 0.6-3.8 0.3-1.9 0.9-3.8 0.6-1.9 1.3-3.7 0.8-1.8 1.7-3.5 0.9-1.7 2-3.4 1.1-1.6 2.4-3.1 1.2-1.5 2.6-2.9 1.4-1.4 2.9-2.6 1.5-1.3 3.1-2.3 1.7-1.1 3.4-2.1 1.7-0.9 3.5-1.6 1.8-0.8 3.7-1.3 1.9-0.6 3.8-1 1.9-0.4 3.9-0.6 1.9-0.2 3.9-0.2 2 0 3.9 0.2 2 0.2 3.9 0.6 1.9 0.4 3.8 1 1.9 0.5 3.7 1.3 1.8 0.7 3.5 1.6 1.8 1 3.4 2.1 1.6 1 3.1 2.3 1.5 1.2 2.9 2.6 1.4 1.4 2.7 2.9 1.2 1.5 2.3 3.1 1.1 1.7 2 3.4 0.9 1.7 1.7 3.5 0.7 1.8 1.3 3.7 0.6 1.9 1 3.8 0.3 1.9 0.5 3.8 0.2 2 0.2 3.9z"/><path fill-rule="evenodd" class="o" d="m107.5 18.8c19.1 3.9 35.1 13.5 44.6 27.2q-0.2 0.9-0.3 1.8-0.2 0.8-0.4 1.7-0.3 0.8-0.5 1.7-0.3 0.8-0.7 1.6-0.3 0.8-0.7 1.6-0.4 0.8-0.8 1.6-0.4 0.8-0.9 1.5-0.5 0.7-1 1.5-0.5 0.7-1.1 1.3-0.6 0.7-1.2 1.4-0.6 0.6-1.2 1.2-0.7 0.6-1.3 1.2-0.7 0.5-1.4 1-0.8 0.6-1.5 1-0.7 0.5-1.5 0.9-0.8 0.5-1.6 0.8-0.8 0.4-1.6 0.7-0.8 0.4-1.7 0.6-0.8 0.3-1.7 0.5-0.8 0.3-1.7 0.4-0.9 0.2-1.7 0.3-0.9 0.1-1.8 0.2-0.9 0.1-1.8 0.1-0.8 0-1.7-0.1-0.9 0-1.8-0.1-0.9-0.1-1.7-0.3-0.9-0.1-1.8-0.4-0.8-0.2-1.7-0.4-0.8-0.3-1.6-0.6-0.9-0.3-1.7-0.7-0.8-0.3-1.6-0.8-0.7-0.4-1.5-0.8-0.7-0.5-1.5-1-0.7-0.5-1.4-1-0.7-0.6-1.3-1.2-0.7-0.6-1.3-1.2-0.6-0.6-1.2-1.3-0.6-0.7-1.1-1.4-0.5-0.7-1-1.4-0.5-0.7-1-1.5-0.4-0.8-0.8-1.6-0.4-0.7-0.7-1.6-0.4-0.8-0.7-1.6-0.3-0.8-0.5-1.7-0.3-0.8-0.5-1.7-0.1-0.8-0.3-1.7-0.1-0.9-0.2-1.8-0.1-0.8-0.1-1.7 0-0.9 0-1.8 0-0.9 0.1-1.7 0.1-0.9 0.2-1.8 0.2-0.9 0.3-1.7 0.2-0.9 0.5-1.7 0.2-0.9 0.5-1.7 0.3-0.8 0.7-1.6 0.3-0.9 0.7-1.6 0.4-0.8 0.8-1.6 0.5-0.8 1-1.5 0.5-0.7 1-1.4 0.5-0.7 1.1-1.4 0.6-0.7 1.2-1.3 0.6-0.6 1.3-1.2 0.7-0.6 1.3-1.1 0.7-0.6 1.5-1.1z"/><path fill-rule="evenodd" class="l" d="m72 61.6q1.1 0 2.3-0.1 1.2-0.1 2.3-0.4 1.2-0.2 2.3-0.5 1.1-0.4 2.2-0.8 1.1-0.5 2.1-1 1.1-0.6 2.1-1.2 0.9-0.7 1.8-1.4 0.9-0.7 1.8-1.6 0.8-0.8 1.6-1.7 0.7-0.9 1.4-1.9 0.6-1 1.2-2 0.5-1 1-2.1 0.4-1.1 0.8-2.2 0.3-1.1 0.5-2.3 0.3-1.1 0.4-2.3 0.1-1.2 0.1-2.3 0-1.2-0.1-2.4-0.1-1.1-0.4-2.3-0.2-1.1-0.5-2.2-0.4-1.2-0.8-2.3-0.5-1-1-2.1-0.6-1-1.2-2-0.7-1-1.4-1.9-0.8-0.9-1.6-1.7-0.8-0.8-1.8-1.6-0.9-0.7-1.8-1.4-1-0.6-2-1.2-1.1-0.5-2.2-1-1.1-0.4-2.2-0.7-1.1-0.4-2.3-0.6-1.1-0.2-2.3-0.4-1.1-0.1-2.3-0.1-1.2 0-2.4 0.1-1.1 0.2-2.3 0.4-1.1 0.2-2.3 0.6-1.1 0.3-2.2 0.7-1.1 0.5-2.1 1-1 0.6-2 1.2-1 0.7-1.9 1.4-0.9 0.8-1.7 1.6-0.9 0.8-1.6 1.7-0.8 0.9-1.4 1.9-0.7 1-1.2 2-0.6 1.1-1 2.1-0.5 1.1-0.8 2.2-0.3 1.2-0.6 2.3-0.2 1.2-0.3 2.3-0.1 1.2-0.1 2.4 0 1.1 0.1 2.3 0.1 1.2 0.3 2.3 0.3 1.2 0.6 2.3 0.3 1.1 0.8 2.2 0.5 1.1 1 2.1 0.6 1 1.2 2 0.7 1 1.4 1.9 0.8 0.9 1.6 1.7 0.8 0.8 1.7 1.6 0.9 0.7 1.9 1.4 1 0.6 2 1.2 1 0.5 2.1 1 1.1 0.4 2.2 0.8 1.2 0.3 2.3 0.5 1.2 0.3 2.3 0.4 1.2 0.1 2.4 0.1z"/></svg>