<svg version="1.2" xmlns="http://www.w3.org/2000/svg" viewBox="0 0 256 206" width="256" height="206"><defs><clipPath clipPathUnits="userSpaceOnUse" id="cp1"><path d="m35 38.31h84v127.69h-84z"/></clipPath><clipPath clipPathUnits="userSpaceOnUse" id="cp2"><path d="m142 38.31h83v127.69h-83z"/></clipPath><clipPath clipPathUnits="userSpaceOnUse" id="cp3"><path d="m4.57 77.72h95.31l-0.01 127.84h-95.3z"/></clipPath><clipPath clipPathUnits="userSpaceOnUse" id="cp4"><path d="m160.38 77.72h95.35v127.84h-95.35z"/></clipPath><clipPath clipPathUnits="userSpaceOnUse" id="cp5"><path d="m56.5 1.81h125.5v42.75h-125.5z"/></clipPath></defs><style>.a{fill:none;stroke:#000;stroke-width:.8}.b{fill:#001d61}.c{fill:#eb7709}.d{fill:#009986}.e{fill:#042362}</style><path class="a" d="m75.8 106.8h110.2"/><g clip-path="url(#cp1)"><path class="b" d="m82.9 159.2c9.1 0 22 1.2 35.3 6.2-7.7-4.2-22.4-10.5-41.8-10.5-2.5 0-5.1 0.1-7.6 0.4h-0.5l-26.2-109.9 0.5-0.1c6.3-1.2 12.6-1.8 18.8-1.8 26.9 0 47.1 11.6 56.6 18.5-21.4-20.5-51.4-23.7-68.2-23.7-7.3 0-12.7 0.6-14.4 0.8l27.9 121.9c2-0.4 9.5-1.8 19.6-1.8z"/></g><g clip-path="url(#cp2)"><path class="b" d="m177.4 159.2c-9.1 0-22 1.2-35.3 6.2 7.7-4.2 22.4-10.5 41.8-10.5 2.5 0 5.1 0.1 7.6 0.4h0.5l26.2-109.9-0.5-0.1c-6.3-1.2-12.6-1.8-18.8-1.8-26.9 0-47.1 11.6-56.6 18.5 21.4-20.5 51.4-23.7 68.2-23.7 7.3 0 12.7 0.6 14.4 0.8l-27.9 121.9c-2-0.4-9.5-1.8-19.6-1.8z"/></g><path class="c" d="m52.8 174.4c12.5-4.9 25.5-7.3 38.6-7.3 8.5 0 15.6 1 20.6 2.1-8.5-2.9-18.3-4.4-29.1-4.4-14 0-24.7 2.6-24.8 2.6l-0.6 0.2-0.1-0.6-27-107.6 0.5-0.2c2-0.4 4.7-0.8 7.1-1.1l0.6-0.1-1.3-5.9c-6.6 0.3-12 1-13.8 1.2z"/><path class="c" d="m207.5 174.4c-12.5-4.9-25.5-7.3-38.6-7.3-8.5 0-15.6 1-20.6 2.1 8.5-2.9 18.3-4.4 29.1-4.4 14 0 24.7 2.6 24.8 2.6l0.6 0.2 0.1-0.6 27-107.6-0.5-0.2c-2-0.4-4.7-0.8-7.1-1.1l-0.6-0.1 1.3-5.9c6.6 0.3 12 1 13.8 1.2z"/><path class="d" d="m18 85l26 104.1c27.3-13.2 49.1-16 62.7-16q2.1 0 4 0.1-7.1-1.2-14.7-1.2c-25.5 0-46.5 10-46.7 10.1l-0.6 0.3-28-108.1 0.6-0.2c1.8-0.4 3.7-0.8 5.9-1.2l-1.2-4.8-0.3-1.1c-6.1 0.3-10.4 1-11.9 1.3l2.3 9.2z"/><path class="d" d="m242.3 85l-26 104.1c-27.3-13.2-49.1-16-62.7-16q-2.1 0-4 0.1 7.1-1.2 14.7-1.2c25.5 0 46.5 10 46.7 10.1l0.6 0.3 28-108.1-0.6-0.2c-1.8-0.4-3.7-0.8-5.9-1.2l1.2-4.8 0.3-1.1c6.1 0.3 10.4 1 11.9 1.3l-2.3 9.2z"/><g clip-path="url(#cp3)"><path class="b" d="m4.6 79.2l31.6 126.4q2.7-2.1 5.6-4.2c20.9-14.6 45.3-21.4 57.8-24.2-28 2.7-51.7 15.1-58.8 19.1l-0.6 0.3-28.7-111.4 0.5-0.2c1.4-0.3 2.9-0.6 4.7-0.9l-1.5-5.9-0.1-0.2c-5.3 0.3-9.2 0.9-10.5 1.2z"/></g><g clip-path="url(#cp4)"><path class="b" d="m255.7 79.2l-31.6 126.4q-2.7-2.1-5.6-4.2c-20.9-14.6-45.2-21.4-57.8-24.2 28 2.7 51.7 15.1 58.8 19.1l0.6 0.3 28.7-111.4-0.5-0.2c-1.4-0.3-2.9-0.6-4.7-0.9l1.5-5.9 0.1-0.2c5.3 0.3 9.2 0.9 10.5 1.2z"/></g><g clip-path="url(#cp5)"><path fill-rule="evenodd" class="e" d="m58.8 44.1l60.5-39.2 60.6 39.2c0.6 0.5 1.5 0.3 1.9-0.4 0.4-0.6 0.2-1.4-0.4-1.8l-61.3-39.8c-0.5-0.3-1.1-0.3-1.5 0l-61.3 39.8c-0.6 0.4-0.8 1.2-0.4 1.8 0.4 0.7 1.2 0.9 1.9 0.4z"/></g><path fill-rule="evenodd" class="e" d="m134.3 12.9l11.1-7.2 57.3 37.6c0.6 0.4 1.5 0.3 1.9-0.4 0.4-0.6 0.2-1.4-0.4-1.8l-58-38.2c-0.5-0.3-1-0.3-1.5 0 0 0-4.9 3.2-11.9 7.7-0.6 0.4-0.8 1.3-0.4 1.9 0.4 0.6 1.3 0.8 1.9 0.4z"/><path fill-rule="evenodd" class="e" d="m91.7 21.6v-10.2c0-0.8-0.6-1.4-1.4-1.4h-11.3c-0.7 0-1.3 0.6-1.3 1.4v18c0 0.7 0.6 1.3 1.3 1.3 0.8 0 1.4-0.6 1.4-1.3v-16.7h8.6v8.9c0 0.7 0.6 1.3 1.3 1.3 0.8 0 1.4-0.6 1.4-1.3z"/><path fill-rule="evenodd" d="m96.4 83.8c0-4.4 3.6-8 7.9-8 4.4 0 8 3.6 8 8 0 4.4-3.6 8-8 8-4.3 0-7.9-3.6-7.9-8zm3.5 0c0 2.4 2 4.4 4.4 4.4 2.5 0 4.5-2 4.5-4.4 0-2.5-2-4.5-4.5-4.5-2.4 0-4.4 2-4.4 4.5zm-2.7 13.8v-3.6h14.2v3.6z"/><path fill-rule="evenodd" d="m131 82.4c0 6.3-7.2 6.3-7.2 6.3h-3.6v9h-3.6v-21.6h7.2c0 0 7.2 0 7.2 6.3zm-3.6 0c0-2.7-3.6-2.7-3.6-2.7h-3.6v5.4h3.6c0 0 3.6 0 3.6-2.7z"/><path  d="m138.1 79.7h10.7v-3.6h-14.3v21.5h14.3v-3.6h-10.7v-5.4h8.9v-3.5h-8.9z"/><path fill-rule="evenodd" d="m167.2 91.4c0 5.9-6.1 6.2-7.5 6.2h-7.2v-21.5h7.2c0 0 7.2-0.2 7.2 6 0 2.9-1.8 4.3-3.6 4.8 4 0.8 3.9 4.5 3.9 4.5zm-7.5-6.3c0 0 3.6 0 3.6-2.7 0-2.9-3.6-2.7-3.6-2.7h-3.6v5.4zm3.9 6.2c0-2.9-3.9-2.7-3.9-2.7h-3.6v5.4h3.6c1.5 0 3.9-0.3 3.9-2.7z"/><path  d="m83.1 121.5q-0.2-0.5-0.2-1.2 0-1.2 0.8-2 0.7-0.8 1.9-0.9 1.2 0 1.9 0.8 0.8 0.7 0.8 2 0 1.2-0.8 2-0.8 0.8-1.9 0.8-1.9 0-2.5-1.5z"/><path  d="m106.7 114.8l-0.3 1.2q-1.6-0.3-2.7-0.3-4.1 0-4.1 2.5 0 0.9 0.6 1.4 0.6 0.5 1.5 0.8 0.9 0.4 2 0.6 1 0.3 1.9 0.7 2.2 1.1 2.2 3.3 0 2.2-1.7 3.3-1.4 0.9-3.6 0.9-2.9 0-4.8-1.2l0.5-1.1q0.6 0.4 1.6 0.7 1.1 0.4 2.1 0.4 1.9 0 3.1-0.6 1.3-0.8 1.3-2.3 0-1.1-0.6-1.7-0.6-0.6-1.5-0.9-0.9-0.4-2-0.7-1-0.2-1.9-0.6-2.2-1-2.2-2.8 0-1.9 1.3-2.9 1.3-1.1 3.6-1.1 1.8 0 3.7 0.4z"/><path  d="m116.9 120.1q-0.9-0.3-1.8-0.3-1.8 0-2.9 1.2-1.2 1.2-1.2 3.3 0 3.8 3.5 3.8 1.4 0 2.9-0.5 0.3-0.1 0.4-0.1l0.3 1.1q-0.7 0.5-2.7 0.7-0.5 0-1.2 0-1.8 0-2.9-0.9-1.6-1.2-1.6-4 0-2.8 1.5-4.3 1.5-1.5 3.9-1.5 0.7 0 1.6 0.2 0.8 0.2 1.3 0.6v2.8l-1 0.1z"/><path  d="m122 118.6v10.6h-1.3v-10.5zm-0.8-2.8q-0.4 0-0.6-0.2-0.3-0.3-0.2-0.7 0-0.5 0.2-0.7 0.2-0.3 0.7-0.3 0.4 0 0.6 0.3 0.3 0.2 0.3 0.7 0 0.5-0.3 0.7-0.3 0.2-0.7 0.2z"/><path fill-rule="evenodd" d="m126.1 124.4q0 3.7 3.5 3.7 1.5 0 2.8-0.4 0.3-0.1 0.4-0.2l0.3 1.1q-0.7 0.5-2.6 0.7-0.6 0-1.2 0-1.8 0-3-0.9-1.6-1.2-1.6-4 0-2.8 1.5-4.3 1.4-1.5 3.5-1.5 2.1 0 3.2 1.3 0.8 1.1 0.8 2.9 0 0.4 0 0.9h-7.6q0 0.1 0 0.3zm3.7-4.5q-1.3 0-2.2 0.8-0.9 0.8-1.3 2.1h6.2q-0.2-2.4-1.9-2.7-0.3-0.2-0.8-0.2z"/><path  d="m137.1 119.8q1.6-1.1 3-1.2 1.3 0 2 0.3 0.7 0.3 1.1 0.9 0.5 0.6 0.5 1.6v7.8h-1.4v-7.4q0-0.8-0.3-1.2-0.7-0.8-2.1-0.8-1.3 0.1-2.8 0.9v8.5h-1.4v-10.5l1.4-0.1z"/><path  d="m153.4 120.1q-0.8-0.3-1.7-0.3-1.9 0-3 1.2-1.1 1.2-1.1 3.3 0 3.8 3.5 3.8 1.4 0 2.9-0.5 0.3-0.1 0.3-0.1l0.4 1.1q-0.8 0.5-2.7 0.7-0.6 0-1.2 0-1.8 0-2.9-0.9-1.7-1.2-1.7-4 0-2.8 1.5-4.3 1.5-1.5 3.9-1.5 0.8 0 1.7 0.2 0.8 0.2 1.3 0.6v2.8l-1.1 0.1z"/><path fill-rule="evenodd" d="m158 124.4q0 3.7 3.6 3.7 1.5 0 2.8-0.4 0.3-0.1 0.4-0.2l0.3 1.1q-0.7 0.5-2.7 0.7-0.5 0-1.1 0-1.8 0-3-0.9-1.6-1.2-1.6-4 0-2.8 1.4-4.3 1.5-1.5 3.6-1.5 2.1 0 3.2 1.3 0.7 1.1 0.7 2.9 0 0.4 0 0.9h-7.5q-0.1 0.1-0.1 0.3zm3.8-4.5q-1.3 0-2.3 0.8-0.9 0.8-1.2 2.1h6.1q-0.1-2.4-1.8-2.7-0.4-0.2-0.8-0.2z"/><path  d="m175.1 121.5q-0.2-0.5-0.2-1.2 0-1.2 0.8-2 0.8-0.8 1.9-0.9 1.2 0 1.9 0.8 0.8 0.7 0.8 2 0 1.2-0.8 2-0.8 0.8-1.9 0.8-1.9 0-2.5-1.5z"/></svg>