<svg width="46" height="46" viewBox="0 0 46 46" fill="none" xmlns="http://www.w3.org/2000/svg">
<path fill-rule="evenodd" clip-rule="evenodd" d="M31.3333 16.7501C31.3333 18.9602 30.4554 21.0798 28.8925 22.6426C27.3297 24.2054 25.2101 25.0834 23 25.0834C20.7899 25.0834 18.6702 24.2054 17.1074 22.6426C15.5446 21.0798 14.6667 18.9602 14.6667 16.7501C14.6667 14.5399 15.5446 12.4203 17.1074 10.8575C18.6702 9.29472 20.7899 8.41675 23 8.41675C25.2101 8.41675 27.3297 9.29472 28.8925 10.8575C30.4554 12.4203 31.3333 14.5399 31.3333 16.7501ZM27.1667 16.7501C27.1667 17.8552 26.7277 18.915 25.9463 19.6964C25.1649 20.4778 24.1051 20.9167 23 20.9167C21.8949 20.9167 20.8351 20.4778 20.0537 19.6964C19.2723 18.915 18.8333 17.8552 18.8333 16.7501C18.8333 15.645 19.2723 14.5852 20.0537 13.8038C20.8351 13.0224 21.8949 12.5834 23 12.5834C24.1051 12.5834 25.1649 13.0224 25.9463 13.8038C26.7277 14.5852 27.1667 15.645 27.1667 16.7501Z" fill="#03C4EB"/>
<path fill-rule="evenodd" clip-rule="evenodd" d="M23 0.083374C10.3437 0.083374 0.0833282 10.3438 0.0833282 23C0.0833282 35.6563 10.3437 45.9167 23 45.9167C35.6562 45.9167 45.9167 35.6563 45.9167 23C45.9167 10.3438 35.6562 0.083374 23 0.083374ZM4.24999 23C4.24999 27.3542 5.73541 31.3625 8.22499 34.5459C9.97339 32.2498 12.229 30.3891 14.8155 29.109C17.402 27.829 20.2495 27.1642 23.1354 27.1667C25.984 27.164 28.7957 27.8115 31.3561 29.06C33.9165 30.3085 36.1583 32.1249 37.9104 34.3709C39.7155 32.0034 40.9309 29.2401 41.456 26.3096C41.9811 23.3791 41.8009 20.3657 40.9302 17.5188C40.0595 14.6718 38.5234 12.0731 36.4489 9.93762C34.3745 7.80218 31.8214 6.19141 29.0008 5.2386C26.1802 4.28579 23.1733 4.01831 20.2289 4.45832C17.2844 4.89832 14.4871 6.03315 12.0683 7.7689C9.64947 9.50466 7.67877 11.7914 6.31922 14.44C4.95968 17.0886 4.25037 20.0229 4.24999 23ZM23 41.75C18.6957 41.7565 14.5214 40.2758 11.1833 37.5584C12.5269 35.6349 14.3153 34.0645 16.3962 32.9806C18.4772 31.8968 20.7891 31.3317 23.1354 31.3334C25.4524 31.3315 27.7364 31.8825 29.7978 32.9405C31.8591 33.9985 33.6383 35.5331 34.9875 37.4167C31.6235 40.2223 27.3804 41.7562 23 41.75Z" fill="#03C4EB"/>
</svg>
